<svg width="36" height="32" viewBox="0 0 36 32" fill="none" xmlns="http://www.w3.org/2000/svg">
<path d="M8.90003 16.7562C8.66926 17.2338 8.20772 17.5522 7.66926 17.5522C6.90003 17.5522 6.20773 16.9154 6.20773 16.0398C6.20773 15.2438 6.8231 14.5274 7.66926 14.5274C8.20772 14.5274 8.66926 14.8458 8.90003 15.3234C8.97695 15.5622 9.05389 15.801 9.05389 16.0398C9.05389 16.2786 8.97695 16.5174 8.90003 16.7562ZM30.2077 12.9353C29.8231 11.9801 29.2846 11.1045 28.5154 10.3881C27.8231 9.67164 26.9769 9.03483 26.0539 8.63682C25.1308 8.23881 24.0539 8 23.0539 8C22.5923 8 22.2077 8.39801 22.2077 8.87562C22.2077 9.35323 22.5923 9.75125 23.0539 9.75125C26.3616 9.75125 29.0539 12.5373 29.0539 15.9602C29.0539 19.3831 26.3616 22.1692 23.0539 22.1692C19.7462 22.1692 17.0539 19.3831 17.0539 15.9602C17.0539 15.4826 16.6693 15.0846 16.2077 15.0846H10.2846C10.2077 14.9254 10.2077 14.8458 10.1308 14.6866C9.66927 13.7313 8.74618 13.0945 7.66926 13.0945C6.1308 13.0945 4.90002 14.3682 4.90002 15.9602C4.90002 17.5522 6.1308 18.8259 7.66926 18.8259C8.74618 18.8259 9.66927 18.1891 10.1308 17.2338C10.2077 17.0746 10.2077 16.995 10.2846 16.8358H15.3616L15.4385 17.1542C15.5154 17.791 15.7462 18.4279 15.977 19.0647C16.3616 20.0199 16.9 20.8955 17.6693 21.6119C18.3616 22.3284 19.2077 22.9652 20.1308 23.3632C21.0539 23.7612 22.1308 24 23.1308 24C24.2077 24 25.2077 23.7612 26.1308 23.3632C27.0539 22.9652 27.9 22.408 28.5923 21.6119C29.2846 20.8955 29.9 20.0199 30.2846 19.0647C30.6692 18.1095 30.9 16.995 30.9 15.9602C30.7462 14.9254 30.5923 13.8906 30.2077 12.9353Z" fill="#666666"/>
</svg>
