<svg width="44" height="32" viewBox="0 0 44 32" fill="none" xmlns="http://www.w3.org/2000/svg">
<path d="M1.18423 23.5V7C1.18423 6.73358 1.40023 6.51758 1.66666 6.51758C1.93308 6.51758 2.14908 6.73358 2.14908 7V23.5C2.14908 23.7664 1.93308 23.9824 1.66666 23.9824C1.40023 23.9824 1.18423 23.7664 1.18423 23.5ZM42.3844 23.5V7C42.3844 6.73358 42.6004 6.51758 42.8669 6.51758C43.1332 6.51768 43.3493 6.73364 43.3493 7V23.5C43.3493 23.7664 43.1332 23.9823 42.8669 23.9824C42.6004 23.9824 42.3844 23.7664 42.3844 23.5Z" fill="#666666"/>
<path d="M35.486 12.4102L35.569 12.4326L41.9362 14.7471L42.0114 14.7812C42.3409 14.964 42.3436 15.4492 42.0163 15.6357L41.9411 15.6709L35.5729 18.0654C35.1317 18.231 34.7325 17.7419 34.9831 17.3428L36.0192 15.6924H8.42545L9.46158 17.3428L9.50064 17.4189C9.65064 17.7756 9.33223 18.1651 8.95279 18.0889L8.87076 18.0654L2.50357 15.6709C2.0756 15.51 2.07879 14.9033 2.50845 14.7471L8.87564 12.4326L8.95767 12.4102C9.33887 12.3379 9.65345 12.7327 9.49771 13.0879L9.4567 13.1631L8.44107 14.7275H36.0036L34.9879 13.1631C34.7467 12.7916 35.0777 12.3331 35.486 12.4102Z" fill="#666666"/>
</svg>
