<?xml version="1.0" encoding="utf-8"?>
<!-- Generator: Adobe Illustrator 27.1.1, SVG Export Plug-In . SVG Version: 6.00 Build 0)  -->
<svg version="1.1" id="Слой_1" xmlns="http://www.w3.org/2000/svg" xmlns:xlink="http://www.w3.org/1999/xlink" x="0px" y="0px"
	 viewBox="0 0 36 32" style="enable-background:new 0 0 36 32;" xml:space="preserve">
<style type="text/css">
	.st0{fill:#666666;}
	.st1{fill-rule:evenodd;clip-rule:evenodd;fill:#666666;}
</style>
<g>
	<path class="st0" d="M30,5.7c0,0.1,0.1,0.2,0.1,0.3v11.4c0,0.4-0.3,0.8-0.7,1l-5.7,2.8V8.4L30,5.7z M8.1,4.9c0.1,0,0.2-0.1,0.4-0.1
		h20.4c0.1,0,0.3,0,0.4,0.1l-6.1,2.6H2.2L8,5L8.1,4.9L8.1,4.9z M2.3,21.6c-0.7,0-1.2-0.5-1.2-1.2V8.8c0-0.1,0-0.2,0-0.2h21.6v13H2.3
		z M29.9,19.3c0.7-0.4,1.3-1.1,1.3-2V6c0-1.3-1-2.2-2.3-2.2H8.5c-0.3,0-0.7,0.1-1,0.2L1.4,6.7l0,0C0.5,7.1,0,7.9,0,8.8v11.6
		c0,1.3,1,2.2,2.3,2.2h20.4c0.3,0,0.7-0.1,1-0.2L29.9,19.3L29.9,19.3z"/>
	<path class="st1" d="M33.2,7.8v10.1c0,0.3,0.2,0.5,0.5,0.5c0.3,0,0.5-0.2,0.5-0.5V7.8l1,0.6l0.1,0c0.4,0.1,0.8-0.2,0.7-0.6l0-0.1
		l-1.8-4.1l0-0.1c-0.2-0.3-0.7-0.3-0.9,0l0,0.1l-1.7,4.1c-0.2,0.5,0.3,0.9,0.8,0.7L33.2,7.8z"/>
</g>
</svg>
