<svg width="40" height="32" viewBox="0 0 40 32" fill="none" xmlns="http://www.w3.org/2000/svg">
<path d="M37.1315 3.2539C37.1711 3.38191 37.1931 3.51655 37.1931 3.65527V17.3105C37.193 17.7926 36.8896 18.28 36.3474 18.5713L29.5349 21.9502V6.49902L37.1315 3.2539ZM10.7897 2.31543C10.9007 2.26956 11.0498 2.23828 11.2194 2.23828H35.6931C35.8535 2.23829 36.0066 2.25984 36.1491 2.30175L28.7751 5.45117H3.6911L10.6042 2.41211L10.6921 2.36523L10.7897 2.31543ZM3.79852 22.3691C2.93907 22.3691 2.29779 21.7179 2.29755 20.9521V6.99316C2.29755 6.89725 2.31004 6.80437 2.32782 6.71386H28.2722V22.3691H3.79852ZM36.9372 19.6875C37.8131 19.2199 38.4557 18.3443 38.4557 17.3105V3.65527C38.4557 2.14534 37.2018 0.975624 35.6931 0.975582H11.2194C10.8369 0.975582 10.422 1.06171 10.072 1.2666L2.67548 4.51855L2.65692 4.52734C1.67737 4.99798 1.03583 5.88584 1.03583 6.99316V20.9521C1.03607 22.4619 2.28986 23.6309 3.79852 23.6309H28.3513C28.7079 23.6308 29.2046 23.5534 29.5788 23.3379L36.9206 19.6963L36.9372 19.6875Z" fill="#666666"/>
<path fill-rule="evenodd" clip-rule="evenodd" d="M40.904 5.82324V17.9932C40.904 18.3416 41.1864 18.6239 41.5349 18.624C41.8834 18.624 42.1667 18.3417 42.1667 17.9932V5.80273L43.3288 6.46484L43.4294 6.51172C43.903 6.68763 44.3931 6.24877 44.2702 5.75879L44.2341 5.65332L42.1237 0.771481L42.0759 0.679684C41.8266 0.282635 41.2335 0.286912 40.9899 0.687496L40.9431 0.779293L38.9118 5.66113C38.6751 6.23019 39.2992 6.77275 39.8298 6.45898L40.904 5.82324Z" fill="#666666"/>
<path fill-rule="evenodd" clip-rule="evenodd" d="M1.66669 6.99323V20.9518C1.66669 22.0898 2.61406 23.0001 3.79827 23.0001H28.3509C28.5244 23.0001 28.7217 22.9772 28.9035 22.9314C29.0527 22.8939 29.1915 22.8409 29.2983 22.7725L36.6404 19.1312C37.3509 18.7519 37.8246 18.0691 37.8246 17.3105V3.6553C37.8246 3.20182 37.6741 2.78447 37.4182 2.44649C37.0319 1.93637 36.4053 1.60702 35.693 1.60702H11.2193C10.9038 1.60702 10.5883 1.68274 10.3516 1.83419L10.3502 1.83492L2.92983 5.09668C2.14035 5.47599 1.66669 6.15875 1.66669 6.99323ZM2.29755 20.9521C2.29779 21.7179 2.93907 22.3691 3.79852 22.3691H28.2722V6.71386H2.32782C2.31004 6.80437 2.29755 6.89725 2.29755 6.99316V20.9521ZM37.1315 3.2539C37.1711 3.38191 37.1931 3.51655 37.1931 3.65527V17.3105C37.193 17.7926 36.8896 18.28 36.3474 18.5713L29.5349 21.9502V6.49902L37.1315 3.2539ZM11.2194 2.23828C11.0498 2.23828 10.9007 2.26956 10.7897 2.31543L10.6921 2.36523L10.6042 2.41211L3.6911 5.45117H28.7751L36.1491 2.30175C36.0066 2.25984 35.8535 2.23829 35.6931 2.23828H11.2194Z" fill="#666666"/>
</svg>
