<svg width="44" height="32" viewBox="0 0 44 32" fill="none" xmlns="http://www.w3.org/2000/svg">
<path d="M29.657 28.7853C29.6652 28.7887 29.6652 28.8003 29.6571 28.8037L24.5353 30.9886C24.5266 30.9924 24.5181 30.983 24.5227 30.9746L25.7178 28.7993C25.7195 28.7962 25.7195 28.7925 25.7177 28.7895L24.5231 26.6957C24.5184 26.6874 24.5268 26.6779 24.5356 26.6815L29.657 28.7853Z" fill="#666666"/>
<path d="M37.2725 2.65918C37.3334 2.8289 37.3691 3.01267 37.3691 3.20605V17.9102C37.369 18.4654 37.0383 19.0013 36.4873 19.3145L29.502 22.9609V6.22461L37.2725 2.65918ZM10.3398 1.71387C10.4532 1.66443 10.6045 1.63086 10.7754 1.63086H35.8184C35.9904 1.63086 36.1559 1.66019 36.3105 1.71191L28.7344 5.18848H2.86426L10.1504 1.81836L10.2393 1.76855L10.3398 1.71387ZM3.18164 23.4053C2.32502 23.4053 1.6309 22.7145 1.63086 21.8311V6.7998C1.63087 6.67928 1.64287 6.56285 1.66602 6.45117H28.2402V23.4053H3.18164ZM37.0977 20.4209C37.9953 19.9165 38.6307 18.9855 38.6309 17.9102V3.20605C38.6309 1.63879 37.3853 0.369141 35.8184 0.369141H10.7754C10.3781 0.369141 9.94956 0.464541 9.59082 0.6875L2.02734 4.18457L2.00781 4.19434C1.00359 4.70207 0.369213 5.64586 0.369141 6.7998V21.8311C0.369177 23.3983 1.61473 24.668 3.18164 24.668H28.3057C28.6741 24.668 29.1846 24.583 29.5674 24.3506L37.0889 20.4258L37.0977 20.4209Z" fill="#666666"/>
<path fill-rule="evenodd" clip-rule="evenodd" d="M24.7754 26.0977L24.6699 26.0635C24.1471 25.942 23.6913 26.5122 23.9746 27.0088L24.6338 28.1631H1C0.651592 28.1631 0.369366 28.4456 0.369141 28.7939C0.369141 29.1425 0.651453 29.4258 1 29.4258H24.6533L23.9697 30.6709C23.6765 31.2047 24.223 31.8083 24.7832 31.5693L29.9043 29.3838L29.9971 29.3369C30.3969 29.0883 30.3926 28.4912 29.9893 28.248L29.8965 28.2012L24.7754 26.0977Z" fill="#666666"/>
</svg>
