<svg width="45" height="32" viewBox="0 0 45 32" fill="none" xmlns="http://www.w3.org/2000/svg">
<path d="M42.3086 21.5292C42.3176 21.5285 42.3229 21.539 42.3169 21.5458L38.6256 25.7382C38.6193 25.7454 38.6074 25.7405 38.6081 25.7309L38.7713 23.3702C38.7716 23.3665 38.7698 23.363 38.7667 23.361L36.6434 22.0223C36.6353 22.0172 36.6384 22.0047 36.6479 22.0039L42.3086 21.5292Z" fill="#666666"/>
<path d="M38.5609 2.69043C38.6101 2.83801 38.638 2.99445 38.638 3.15625V17.5332C38.638 18.0579 38.3075 18.583 37.7279 18.8936L30.5404 22.4717V6.12793L38.5609 2.69043ZM10.8929 1.71484C11.0138 1.66459 11.1747 1.63086 11.3558 1.63086H37.0326C37.2349 1.63089 37.4257 1.66652 37.6009 1.72852L29.7816 5.08105H3.30112L10.6986 1.81738L10.7865 1.77051L10.8929 1.71484ZM3.56967 22.8926C2.654 22.8926 1.9642 22.1953 1.9642 21.3672V6.6709C1.96421 6.56277 1.97917 6.45299 2.0062 6.34375H29.2777V22.8926H3.56967ZM38.3246 20.0068C39.2357 19.5186 39.8997 18.6059 39.8997 17.5332V3.15625C39.8996 1.58843 38.6015 0.369269 37.0326 0.369141H11.3558C10.9581 0.369141 10.528 0.459225 10.1664 0.671875L2.40366 4.09668L2.39389 4.10059L2.38412 4.10547C1.35303 4.60271 0.702497 5.61339 0.702484 6.6709V21.3672C0.702484 22.9352 2.00054 24.1553 3.56967 24.1553H29.3294C29.7017 24.1553 30.2184 24.0737 30.6048 23.8496L38.3158 20.0117L38.3246 20.0068Z" fill="#666666"/>
<path d="M42.3607 20.8994C42.8369 20.9331 43.1103 21.4763 42.8539 21.8789L42.7904 21.9629L39.099 26.1553C38.6938 26.6152 37.9367 26.299 37.9789 25.6875L38.0697 24.3711L33.5824 26.5674C33.2693 26.7204 32.8908 26.5904 32.7376 26.2773C32.5846 25.9643 32.7146 25.5857 33.0277 25.4326L37.4427 23.2725L36.307 22.5566C35.7866 22.2285 35.9821 21.4265 36.5951 21.375L42.2562 20.9004L42.3607 20.8994Z" fill="#666666"/>
</svg>
