<svg width="36" height="32" viewBox="0 0 36 32" fill="none" xmlns="http://www.w3.org/2000/svg">
<path d="M33.97 8.9248C33.97 8.30398 33.4953 7.80566 32.7591 7.80566H3.20831C2.47213 7.80566 1.99738 8.30398 1.99738 8.9248V25.1416C1.99742 25.5077 2.29371 25.8359 2.76202 25.8359H32.8489C33.4895 25.8357 34.0229 25.2737 33.972 24.6904L33.97 24.6611V8.9248ZM6.0257 19.4531V17.4854H3.92218C3.55528 17.4852 3.25812 17.1872 3.25812 16.8203C3.25836 16.4536 3.55542 16.1564 3.92218 16.1562H6.0257V14.1885C6.02581 13.8217 6.32294 13.5245 6.68976 13.5244C7.05668 13.5244 7.35469 13.8216 7.3548 14.1885V16.1562H9.45734C9.82418 16.1562 10.1221 16.4535 10.1224 16.8203C10.1224 17.1873 9.82433 17.4854 9.45734 17.4854H7.3548V19.4531C7.35464 19.82 7.05665 20.1172 6.68976 20.1172C6.32298 20.1171 6.02586 19.8199 6.0257 19.4531ZM32.1341 16.1562C32.5009 16.1562 32.7989 16.4535 32.7991 16.8203C32.7991 17.1873 32.5011 17.4854 32.1341 17.4854H26.5989C26.232 17.4853 25.9349 17.1873 25.9349 16.8203C25.9351 16.4536 26.2321 16.1563 26.5989 16.1562H32.1341ZM11.3763 4.89062C11.3512 4.78575 11.2402 4.66412 11.0648 4.66406H5.88605C5.68603 4.6643 5.56892 4.82231 5.56866 4.93359V6.20801C5.56899 6.31929 5.68609 6.47632 5.88605 6.47656H11.0648C11.2649 6.47649 11.3818 6.31935 11.3821 6.20801V4.93359L11.3763 4.89062ZM30.4876 4.93359C30.4874 4.82222 30.3705 4.66409 30.1702 4.66406H24.9925C24.7922 4.66406 24.6744 4.82223 24.6741 4.93359V6.20801C24.6745 6.31937 24.7923 6.47656 24.9925 6.47656H30.1702C30.3704 6.47653 30.4873 6.31938 30.4876 6.20801V4.93359ZM31.8167 6.20801C31.8167 6.30004 31.8066 6.38948 31.7913 6.47656H32.7591C34.1656 6.47656 35.2982 7.50789 35.2982 8.9248V24.6074C35.4037 26.0455 34.1619 27.1638 32.8489 27.1641H2.76202C1.6234 27.1641 0.6693 26.3038 0.66925 25.1416V8.9248C0.66925 7.50789 1.80182 6.47656 3.20831 6.47656H4.26495C4.24969 6.3895 4.23959 6.30002 4.23956 6.20801V4.93359C4.23977 4.02645 5.01553 3.33618 5.88605 3.33594H11.0648C11.9354 3.33601 12.711 4.02634 12.7112 4.93359V6.20801C12.7112 6.30004 12.7011 6.38948 12.6859 6.47656H23.3704C23.3552 6.3895 23.3451 6.30002 23.345 6.20801V4.93359C23.3452 4.02629 24.1218 3.33594 24.9925 3.33594H30.1702C31.0409 3.33597 31.8165 4.02634 31.8167 4.93359V6.20801Z" fill="#666666"/>
</svg>
