<svg width="36" height="32" viewBox="0 0 36 32" fill="none" xmlns="http://www.w3.org/2000/svg">
<path d="M23.4324 16.8718V17.061L23.6444 16.9823C23.5796 16.9384 23.5086 16.9012 23.4324 16.8718ZM23.5202 6.95037H22.9052C22.7295 6.95037 22.466 6.95037 22.2903 7.03517C22.2458 7.03517 22.2238 7.03517 22.213 7.04615C22.2024 7.05687 22.2024 7.07807 22.2024 7.11996V8.13755C22.2024 8.39194 22.2903 8.56154 22.5538 8.64634C22.7295 8.73114 22.9931 8.73114 23.2566 8.64634C23.5202 8.56154 23.6959 8.39195 23.6959 8.05275V7.11996C23.6959 6.95037 23.6081 6.95037 23.5202 6.95037ZM21.3239 6.61117H22.9931C23.608 6.61117 24.1352 6.61117 24.7502 6.69597C25.1016 6.69597 25.3651 6.44158 25.3651 6.10238V5.59359C25.3651 5.2544 25.1016 5 24.7502 5H21.3239C20.9724 5 20.7089 5.2544 20.7089 5.59359V6.01758C20.7089 6.35678 20.8846 6.61117 21.3239 6.61117ZM13.5049 9.74872H9.02432C8.4972 9.74872 8.23363 10.2575 8.40934 10.6815C8.58505 10.9359 8.76076 11.1055 9.11217 11.1055H13.5927C13.9441 11.0207 14.2077 10.7663 14.2077 10.4271C14.2956 10.0031 13.9441 9.74872 13.5049 9.74872ZM13.5049 23.6557H9.02432C8.4972 23.6557 8.14578 24.1645 8.32149 24.5885C8.40934 24.8429 8.6729 25.0125 9.02432 25.0125H13.5927C13.9441 24.9277 14.2077 24.6733 14.2077 24.3341C14.2077 23.9949 13.9441 23.6557 13.5049 23.6557ZM6.3887 14.4974H9.02432C9.90283 14.4974 10.6936 14.4974 11.6599 14.4126C12.0114 14.4126 12.2749 14.243 12.3628 13.9039C12.5385 13.4799 12.1871 13.0559 11.6599 13.0559H6.47656C6.30085 13.0559 6.12515 13.1407 5.94944 13.2255C5.68588 13.3951 5.59802 13.7343 5.68587 13.9887C5.77373 14.3278 6.03729 14.4974 6.3887 14.4974ZM6.3887 21.6205H9.02432C9.90286 21.6205 10.6935 21.6205 11.5721 21.7053C11.9235 21.7053 12.2749 21.3661 12.2749 20.9421C12.2749 20.5181 12.0114 20.2637 11.5721 20.2637H6.3887C6.213 20.2637 6.03729 20.2637 5.86158 20.4333C5.68587 20.6029 5.59802 20.9421 5.68587 21.1965C5.86158 21.4509 6.12514 21.6205 6.3887 21.6205ZM10.9571 16.7022H4.71948C4.19236 16.7022 3.92879 17.1262 4.01665 17.5502C4.1045 17.8894 4.36806 18.059 4.71948 18.059H10.9571C11.3964 18.059 11.7478 17.7198 11.6599 17.2958C11.6599 16.9566 11.3085 16.7022 10.9571 16.7022ZM23.0809 8.98553C22.466 9.07033 21.7631 8.81594 21.5874 8.13755C16.7555 8.73114 12.6263 12.9711 12.9777 18.3134C13.3292 23.4861 17.8976 27.5564 23.4324 27.302C28.9671 27.0476 33.1841 22.4685 32.9206 17.211C32.657 12.0383 28.3522 8.56154 24.223 8.13755C24.223 8.56154 23.9595 8.73114 23.6081 8.90074C23.5202 8.90074 23.4324 8.92194 23.3445 8.94314C23.2566 8.96433 23.1688 8.98553 23.0809 8.98553ZM22.9052 9.91832C27.2979 9.91832 30.8999 13.3951 30.8999 17.635C30.8999 21.9597 27.2979 25.3517 22.9052 25.3517C18.5125 25.3517 14.9105 21.8749 14.9105 17.635C14.9105 13.3951 18.5125 9.91832 22.9052 9.91832Z" fill="#666666"/>
<path d="M23.4324 17.061V16.8718V12.4623C23.4324 12.2079 23.2566 12.0383 22.9931 12.0383C22.7295 12.0383 22.5538 12.2079 22.5538 12.4623V16.9901C22.2052 17.2002 22.0429 17.559 22.1145 17.9742C22.2024 18.3982 22.5538 18.7374 23.0809 18.7374C23.5178 18.7374 23.9546 18.4019 24.0458 17.9813L25.8923 17.2958C26.2437 17.211 26.3315 16.8718 26.2437 16.6174C26.1558 16.2782 25.8044 16.1934 25.5408 16.2782L23.6444 16.9823L23.4324 17.061Z" fill="#666666"/>
</svg>
