<svg width="37" height="32" viewBox="0 0 37 32" fill="none" xmlns="http://www.w3.org/2000/svg">
<path d="M25.6738 19.8091C25.8387 20.1509 25.5913 20.5782 25.2615 20.7491C25.179 20.7491 25.0965 20.7491 25.0141 20.7491C24.6842 20.7491 24.4368 20.5782 24.3544 20.2364L22.5401 14.9382C22.3752 14.5964 22.6226 14.1691 22.9525 13.9982C23.2823 13.8273 23.6946 14.0836 23.8596 14.4255L25.6738 19.8091ZM26.1686 26.8164C26.1686 27.2436 25.8387 27.5 25.5089 27.5H12.7269C12.3146 27.5 12.0672 27.1582 12.0672 26.8164C12.0672 26.3891 12.397 26.1327 12.7269 26.1327H25.5089C25.8387 26.1327 26.1686 26.4745 26.1686 26.8164ZM26.4984 22.7145C26.0037 23.3127 25.2615 23.74 24.5193 23.74H13.7165C12.8918 23.74 12.2321 23.3982 11.7373 22.7145C11.2425 22.1164 11.0776 21.2618 11.2426 20.4927L13.3042 14.2545V14.1691C13.5516 12.9727 14.6236 12.0327 15.8605 12.0327H22.5401C23.7771 12.0327 24.8491 12.8873 25.0965 14.1691V14.2545L27.1581 20.4927C27.1581 21.3473 26.9932 22.1164 26.4984 22.7145ZM19.0767 5.53818C20.1487 5.53818 21.0558 6.47818 21.0558 7.58909C21.0558 8.7 20.1487 9.63999 19.0767 9.63999C18.0046 9.63999 17.0975 8.7 17.0975 7.58909C17.0975 6.39272 18.0046 5.53818 19.0767 5.53818ZM28.3951 20.2364L26.3335 13.9127C25.9212 12.0327 24.2719 10.6655 22.4577 10.6655H20.561C21.7155 10.1527 22.4577 8.95636 22.4577 7.50363C22.4577 5.62363 20.9733 4 19.0767 4C17.2624 4 15.6956 5.53817 15.6956 7.50363C15.6956 8.8709 16.5203 10.0673 17.5923 10.6655H15.6956C13.7989 10.6655 12.2321 12.0327 11.8198 13.9127L9.75818 20.1509V20.2364C9.51079 21.4327 9.75818 22.7145 10.5828 23.74C11.325 24.68 12.4795 25.2782 13.7165 25.2782H24.5193C25.7562 25.2782 26.8283 24.68 27.6529 23.74C28.3127 22.7145 28.6425 21.4327 28.3951 20.2364Z" fill="#666666"/>
</svg>
