<svg width="161" height="94" viewBox="0 0 161 94" fill="none" xmlns="http://www.w3.org/2000/svg">
<path d="M88.5912 67.1843C88.3178 67.1843 88.0445 67.2553 87.8395 67.3973C87.6345 67.4683 87.4978 67.6103 87.3611 67.8232L87.2928 67.2553H86.7461V73.929H87.4978V72.4381C87.7711 72.5091 87.9761 72.5091 88.1811 72.5091C88.8645 72.5091 89.4112 72.2961 89.7529 71.7991C90.0946 71.3731 90.2996 70.6631 90.2996 69.7402C90.2996 68.8882 90.1629 68.1782 89.8895 67.7523C89.6162 67.3973 89.1378 67.1843 88.5912 67.1843ZM89.5479 69.7402C89.5479 70.5211 89.4112 71.0891 89.2062 71.4441C89.0012 71.7281 88.6595 71.8701 88.1811 71.8701C87.9761 71.8701 87.7028 71.8701 87.4295 71.7991V69.4562C87.4295 68.8882 87.4978 68.5332 87.7028 68.2492C87.9078 67.9652 88.1128 67.8942 88.5228 67.8942C88.8645 67.8942 89.1378 68.0362 89.2745 68.3202C89.4795 68.6042 89.5479 69.0302 89.5479 69.7402ZM88.8645 62.4985L88.9328 61.8595H88.7962C88.3178 62.0015 87.9078 62.0725 87.5661 62.0725C87.1561 62.0725 86.8828 61.9305 86.6778 61.6465C86.4728 61.3625 86.4044 60.8655 86.3361 60.2975H89.0695V60.2265C89.0695 59.8006 89.0695 59.3746 89.0012 59.0196C88.9328 58.6646 88.8645 58.3806 88.7278 58.1676C88.5912 57.8836 88.3862 57.7416 88.1811 57.5996C87.9761 57.4576 87.7028 57.3866 87.4295 57.3866C86.8144 57.3866 86.4044 57.6706 86.0627 58.1676C85.7211 58.6646 85.5844 59.3036 85.5844 60.0845C85.5844 60.9365 85.7211 61.6465 86.0627 62.0725C86.4044 62.4985 86.8828 62.7824 87.4978 62.7824C88.0445 62.7114 88.4545 62.6404 88.8645 62.4985ZM86.4044 59.5876C86.4727 59.0196 86.5411 58.5936 86.7461 58.3096C86.9511 58.0256 87.1561 57.8836 87.4978 57.8836C88.1128 57.8836 88.3862 58.4516 88.3862 59.5166H86.4044V59.5876ZM93.9214 67.2553H94.6731V67.3973L93.033 72.8641C92.8963 73.29 92.7597 73.574 92.5546 73.787C92.3496 73.929 92.0763 74.071 91.7346 74.071C91.5296 74.071 91.3246 74.071 91.1196 74H91.0513V73.361H91.1879C91.4613 73.432 91.5979 73.432 91.803 73.432C92.008 73.432 92.1446 73.361 92.213 73.29C92.2813 73.219 92.418 73.0771 92.4863 72.5801H92.3496L90.8462 67.3263H91.5979L92.7597 71.5861L93.9214 67.2553ZM79.5025 62.4985L79.5708 61.8595H79.4342C78.9558 62.0015 78.5458 62.0725 78.2041 62.0725C77.7941 62.0725 77.5208 61.9305 77.3157 61.6465C77.1107 61.3625 77.0424 60.8655 76.9741 60.2975H79.7075V60.2265C79.7075 59.8006 79.7075 59.3746 79.6392 59.0196C79.5708 58.6646 79.5025 58.3806 79.3658 58.1676C79.2291 57.8836 79.0241 57.7416 78.8191 57.5996C78.6141 57.4576 78.3408 57.3866 78.0674 57.3866C77.4524 57.3866 77.0424 57.6706 76.7007 58.1676C76.359 58.6646 76.2224 59.3036 76.2224 60.0845C76.2224 60.9365 76.359 61.6465 76.7007 62.0725C77.0424 62.4985 77.5207 62.7824 78.1358 62.7824C78.6825 62.7114 79.0925 62.6404 79.5025 62.4985ZM77.0424 59.5876C77.1107 59.0196 77.1791 58.5936 77.3841 58.3096C77.5891 58.0256 77.7941 57.8836 78.1358 57.8836C78.7508 57.8836 79.0241 58.4516 79.0241 59.5166H77.0424V59.5876ZM73.6939 58.0256H72.3272V57.3866H75.744V58.0256H74.3773V62.6404H73.6256V58.0256H73.6939ZM74.514 67.1843C73.8989 67.1843 73.4206 67.3973 73.1473 67.8942C72.8056 68.3912 72.6689 69.0302 72.6689 69.8112C72.6689 70.7341 72.8056 71.3731 73.1473 71.8701C73.4889 72.3671 73.9673 72.5801 74.5823 72.5801C75.1973 72.5801 75.6757 72.3671 76.0174 71.8701C76.359 71.3731 76.4957 70.7341 76.4957 69.8112C76.4957 69.0302 76.359 68.3912 76.0174 67.8942C75.539 67.3973 75.0607 67.1843 74.514 67.1843ZM75.6073 69.7402C75.6073 70.5921 75.539 71.1601 75.334 71.4441C75.129 71.7281 74.8557 71.8701 74.514 71.8701C74.1723 71.8701 73.8306 71.7281 73.6939 71.3731C73.4889 71.0181 73.4206 70.4502 73.4206 69.7402C73.4206 69.1012 73.4889 68.6042 73.6939 68.2492C73.8989 67.9652 74.1723 67.7523 74.514 67.7523C74.8557 67.7523 75.129 67.8942 75.334 68.2492C75.539 68.6752 75.6073 69.1722 75.6073 69.7402ZM89.7529 62.5695H89.6845V61.9305H89.7529C89.9579 62.0015 90.2312 62.0015 90.2996 61.9305C90.3679 61.8595 90.4362 61.7885 90.4362 61.7175C90.5046 61.5755 90.5046 61.3625 90.5729 61.0785C90.6412 60.7235 90.7096 60.4395 90.8462 60.2975C90.9146 60.1555 91.0513 60.0135 91.2563 59.9426C91.1196 59.8716 90.9829 59.7296 90.9146 59.6586C90.7779 59.5166 90.7096 59.2326 90.6412 58.8776C90.5729 58.5936 90.5729 58.3806 90.5046 58.3096C90.4362 58.1676 90.4362 58.0966 90.3679 58.0966C90.2996 58.0256 90.0262 58.0256 89.8212 58.0966H89.7529V57.4576H89.8212C90.2996 57.3867 90.5729 57.4576 90.7779 57.5286C90.9146 57.5996 91.0513 57.7416 91.1196 57.8836C91.1879 58.0256 91.3246 58.3096 91.3929 58.6646C91.4613 58.9486 91.5296 59.2326 91.5979 59.3036C91.6663 59.4456 91.7346 59.5166 91.8713 59.5876C92.0079 59.6586 92.1446 59.6586 92.3496 59.6586H92.6913V57.3866H93.443V59.6586H93.7847C93.9897 59.6586 94.1264 59.6586 94.263 59.5876C94.3997 59.5166 94.468 59.4456 94.468 59.3036C94.5364 59.1616 94.6047 58.9486 94.6731 58.6646C94.7414 58.3096 94.8097 58.0256 94.9464 57.8126C95.0831 57.6706 95.1514 57.5286 95.2881 57.4576C95.4931 57.3867 95.8348 57.3866 96.2448 57.3866H96.3131V58.0256H96.2448C96.0398 58.0256 95.7664 57.9546 95.6981 58.0256C95.6981 58.0256 95.6298 58.0966 95.5614 58.2386C95.4931 58.3806 95.4247 58.5936 95.4247 58.8776C95.3564 59.2326 95.2881 59.4456 95.1514 59.6586C95.0831 59.8006 94.9464 59.8716 94.8097 59.9426C94.9464 60.0135 95.0831 60.1555 95.2197 60.2975C95.3564 60.4395 95.4248 60.7235 95.4931 61.1495C95.5614 61.4335 95.6298 61.6465 95.6298 61.7885C95.6981 61.8595 95.6981 62.0015 95.7664 62.0015C95.9031 62.0725 96.1764 62.0725 96.3131 62.0015H96.3815V62.6404H96.3131C96.1081 62.6404 95.9714 62.7114 95.8348 62.7114C95.4931 62.7114 95.2197 62.5695 95.0831 62.4275C94.9464 62.2145 94.8097 61.9305 94.7414 61.4335C94.673 61.0075 94.5364 60.7235 94.468 60.5815C94.3997 60.4395 94.1947 60.3685 93.9214 60.3685H93.5797V62.7114H92.828V60.3685H92.4863C92.213 60.3685 92.008 60.4395 91.9396 60.5815C91.8029 60.7235 91.7346 61.0075 91.6663 61.4335C91.5979 61.8595 91.4613 62.1435 91.3246 62.3565C91.1879 62.5694 90.9146 62.7114 90.5046 62.7114C90.0946 62.6404 89.8895 62.6404 89.7529 62.5695ZM79.2291 67.4683C78.7508 67.4683 78.4091 67.6103 78.0674 67.9652C78.1358 67.5393 78.2724 67.2553 78.4091 67.0423C78.5458 66.8293 78.8191 66.6873 79.1608 66.6873H79.5708C79.9125 66.6873 80.1858 66.6163 80.3909 66.4743C80.5959 66.3323 80.7325 65.9773 80.8009 65.4093V65.3383H80.1859V65.4093C80.1175 65.7643 80.0492 65.9063 79.9808 65.9063C79.9125 65.9773 79.7758 65.9773 79.5708 65.9773H79.0925C78.4774 65.9773 77.9991 66.2613 77.7258 66.9003C77.4524 67.4683 77.2474 68.3202 77.2474 69.4562C77.2474 70.5211 77.3841 71.3021 77.7258 71.7991C77.9991 72.2961 78.4775 72.5091 79.1608 72.5091C79.7758 72.5091 80.2542 72.2961 80.5959 71.7991C80.9375 71.3731 81.0742 70.7341 81.0742 69.8822C81.0742 69.1722 80.9375 68.5332 80.5959 68.1072C80.2542 67.6813 79.7758 67.4683 79.2291 67.4683ZM79.1608 71.8701C78.8191 71.8701 78.5458 71.7281 78.3408 71.3731C78.1358 71.0181 78.0674 70.5211 78.0674 69.9532C78.0674 69.3142 78.1358 68.8882 78.3408 68.6042C78.5458 68.3202 78.8191 68.1782 79.1608 68.1782C79.5025 68.1782 79.7758 68.3202 79.9808 68.6752C80.1859 69.0302 80.2542 69.4562 80.2542 70.0242C80.2542 70.6631 80.1859 71.1601 79.9808 71.5151C79.7758 71.7281 79.5025 71.8701 79.1608 71.8701ZM81.8942 61.9305C81.8259 62.2145 81.6892 62.3565 81.4842 62.4985C81.3476 62.6404 81.0742 62.6404 80.8009 62.6404C80.6642 62.6404 80.5275 62.6404 80.3225 62.5695H80.2542V61.8595H80.3909C80.5275 61.8595 80.5959 61.9305 80.7325 61.9305C80.9375 61.9305 81.0742 61.8595 81.1425 61.7175C81.2109 61.5755 81.3476 61.1495 81.4159 60.5815C81.5526 59.9425 81.6209 59.3036 81.6209 58.7356L81.6892 57.8126L82.0993 57.3866H84.491V62.6404H83.876V58.0256H82.5093L82.4409 58.6646C82.3726 59.3746 82.3043 60.0135 82.2359 60.6525C82.0993 61.2205 82.0309 61.6465 81.8942 61.9305ZM83.7393 67.1843C83.1243 67.1843 82.6459 67.3973 82.3726 67.8942C82.0309 68.3912 81.8942 69.0302 81.8942 69.8112C81.8942 70.7341 82.0309 71.3731 82.3726 71.8701C82.7143 72.3671 83.1926 72.5801 83.8076 72.5801C84.4227 72.5801 84.901 72.3671 85.2427 71.8701C85.5844 71.3731 85.7211 70.7341 85.7211 69.8112C85.7211 69.0302 85.5844 68.3912 85.2427 67.8942C84.8327 67.3973 84.3543 67.1843 83.7393 67.1843ZM84.901 69.7402C84.901 70.5921 84.8327 71.1601 84.6277 71.4441C84.4227 71.7281 84.1493 71.8701 83.8076 71.8701C83.466 71.8701 83.1243 71.7281 82.9876 71.3731C82.7826 71.0181 82.7143 70.4502 82.7143 69.7402C82.7143 69.1012 82.7826 68.6042 82.9876 68.2492C83.1926 67.9652 83.466 67.7523 83.8076 67.7523C84.1493 67.7523 84.4227 67.8942 84.6277 68.2492C84.7644 68.6752 84.901 69.1722 84.901 69.7402ZM98.6365 67.2553H96.1764L95.7664 67.6813L95.6981 68.4622C95.6298 69.5272 95.4248 70.6631 95.1514 71.8701H94.8097L94.8781 73.716H95.4931L95.5614 72.5091H98.4315L98.4999 73.716H99.1149L99.1832 71.8701H98.6365V67.2553ZM97.8848 67.8942V71.8701H95.9031C96.1764 70.8051 96.3131 69.6692 96.4498 68.5332L96.5181 67.9652H97.8848V67.8942ZM147.36 57.3156C146.745 57.3156 146.267 57.5286 145.993 58.0256C145.652 58.5226 145.515 59.1616 145.515 59.9426C145.515 60.8655 145.652 61.5045 145.993 62.0015C146.335 62.4985 146.813 62.7114 147.428 62.7114C148.043 62.7114 148.522 62.4985 148.863 62.0015C149.205 61.5045 149.342 60.8655 149.342 59.9426C149.342 59.1616 149.205 58.5226 148.863 58.0256C148.453 57.5286 147.975 57.3156 147.36 57.3156ZM148.522 59.8716C148.522 60.7235 148.453 61.2915 148.248 61.5755C148.043 61.8595 147.77 62.0015 147.428 62.0015C147.087 62.0015 146.813 61.8595 146.608 61.5045C146.403 61.1495 146.335 60.5815 146.335 59.8716C146.335 59.2326 146.403 58.7356 146.608 58.3806C146.813 58.0966 147.087 57.8836 147.428 57.8836C147.77 57.8836 148.043 58.0256 148.248 58.3806C148.385 58.8066 148.522 59.3036 148.522 59.8716ZM124.878 57.3866H127.269V62.6404H126.518V58.0256H125.151L125.083 58.6646C125.014 59.3746 124.946 60.0135 124.878 60.6525C124.809 61.2915 124.673 61.7175 124.604 62.0015C124.536 62.2855 124.399 62.4275 124.194 62.5695C124.057 62.7114 123.784 62.7114 123.511 62.7114C123.374 62.7114 123.237 62.7114 123.032 62.6404H122.964V61.9305H123.101C123.237 61.9305 123.306 62.0015 123.442 62.0015C123.647 62.0015 123.784 61.9305 123.852 61.7885C123.921 61.7175 123.989 61.4335 124.126 60.6525C124.262 60.0135 124.331 59.3746 124.331 58.8066L124.399 57.8836L124.878 57.3866ZM122.759 62.5695H122.691C122.486 62.5695 122.349 62.6404 122.212 62.6404C121.871 62.6404 121.597 62.4985 121.461 62.2855C121.324 62.0725 121.187 61.7885 121.119 61.2915C121.051 60.8655 120.914 60.5815 120.846 60.4395C120.777 60.2975 120.572 60.2265 120.299 60.2265H119.889V62.5695H119.137V57.3156H119.889V59.5876H120.299C120.504 59.5876 120.709 59.5876 120.777 59.5166C120.914 59.4456 120.982 59.3746 120.982 59.2326C121.051 59.0906 121.119 58.8776 121.187 58.5936C121.256 58.2386 121.324 57.9546 121.461 57.8126C121.597 57.5996 121.666 57.5286 121.802 57.4576C122.007 57.3867 122.349 57.3156 122.759 57.3866H122.827V58.0256H122.759C122.554 58.0256 122.281 57.9546 122.212 58.0256C122.212 58.0256 122.144 58.0966 122.076 58.2386C122.007 58.3806 121.939 58.5936 121.939 58.8776C121.871 59.2326 121.802 59.4456 121.666 59.6586C121.597 59.8006 121.461 59.8716 121.324 59.9426C121.461 60.0135 121.597 60.1555 121.734 60.2975C121.871 60.4395 121.939 60.7235 122.007 61.1495C122.076 61.4335 122.144 61.6465 122.144 61.7885C122.212 61.8595 122.212 61.9305 122.281 62.0015C122.349 62.0015 122.417 62.0725 122.554 62.0725C122.691 62.0725 122.759 62.0725 122.896 62.0725H123.032V62.5695H122.759ZM136.221 57.3866H133.761L133.351 57.8126L133.283 58.5936C133.215 59.6586 133.009 60.7945 132.736 62.0015H132.394L132.463 63.8474H133.078L133.146 62.6404H136.016L136.085 63.8474H136.7L136.768 62.0015H136.221V57.3866ZM135.47 58.0256V62.0015H133.488C133.761 60.9365 133.898 59.8006 134.035 58.6646L134.103 58.0966H135.47V58.0256ZM125.834 67.8942C125.698 67.6103 125.493 67.4683 125.288 67.3263C125.083 67.1843 124.809 67.1133 124.536 67.1133C123.921 67.1133 123.511 67.3973 123.169 67.8942C122.827 68.3912 122.691 69.0302 122.691 69.8112C122.691 70.6631 122.827 71.3731 123.169 71.7991C123.511 72.2251 123.989 72.5091 124.604 72.5091C125.014 72.5091 125.493 72.4381 125.903 72.2961H125.971V71.6571H125.834C125.356 71.7991 124.946 71.8701 124.604 71.8701C124.194 71.8701 123.921 71.7281 123.716 71.4441C123.511 71.1601 123.442 70.6631 123.374 70.0952H126.108V70.0242C126.108 69.5982 126.108 69.1722 126.039 68.8172C126.039 68.4622 125.971 68.1782 125.834 67.8942ZM123.442 69.4562C123.511 68.8882 123.579 68.4622 123.784 68.1782C123.989 67.8942 124.194 67.7523 124.536 67.7523C125.151 67.7523 125.424 68.3202 125.424 69.3852H123.442V69.4562ZM130.071 57.3156C129.661 57.3156 129.183 57.3866 128.773 57.5286H128.704V58.1676L128.841 58.0966C129.251 57.9546 129.661 57.8836 130.071 57.8836C130.344 57.8836 130.549 57.9546 130.686 58.0966C130.823 58.2386 130.891 58.5226 130.891 58.8776V59.3036C130.481 59.3036 130.139 59.3036 129.798 59.3746C129.456 59.4456 129.183 59.5166 128.978 59.6586C128.773 59.8006 128.568 60.0135 128.431 60.2265C128.294 60.4395 128.294 60.7235 128.294 61.0075C128.294 61.5045 128.431 61.8595 128.704 62.1435C128.978 62.4275 129.319 62.5695 129.729 62.5695C130.276 62.5695 130.686 62.3565 131.028 61.9305L131.096 62.4985H131.643V58.8776C131.643 58.3096 131.506 57.8836 131.233 57.5996C130.959 57.4576 130.618 57.3156 130.071 57.3156ZM130.891 60.0845V60.7945C130.891 61.1495 130.754 61.5045 130.549 61.7175C130.344 61.9305 130.071 62.0725 129.798 62.0725C129.524 62.0725 129.319 62.0015 129.183 61.8595C129.046 61.7175 128.978 61.5045 128.978 61.2205C128.978 60.8655 129.114 60.5815 129.319 60.4395C129.593 60.2265 129.934 60.1555 130.413 60.1555H130.891V60.0845ZM153.579 60.1555C153.579 59.6586 153.579 59.3036 153.51 58.9486C153.442 58.5936 153.374 58.3096 153.237 58.0966C153.1 57.8126 152.895 57.6706 152.69 57.5286C152.485 57.3866 152.212 57.3156 151.939 57.3156C151.324 57.3156 150.913 57.5996 150.572 58.0966C150.23 58.5936 150.093 59.2326 150.093 60.0135C150.093 60.8655 150.23 61.5755 150.572 62.0015C150.913 62.4275 151.392 62.7114 152.007 62.7114C152.417 62.7114 152.895 62.6404 153.305 62.4985H153.374V61.8595H153.237C152.759 62.0015 152.349 62.0725 152.007 62.0725C151.597 62.0725 151.324 61.9305 151.118 61.6465C150.913 61.3625 150.845 60.8655 150.777 60.2975H153.51V60.1555H153.579ZM150.913 59.5876C150.982 59.0196 151.05 58.5936 151.255 58.3096C151.46 58.0256 151.665 57.8836 152.007 57.8836C152.622 57.8836 152.895 58.4516 152.895 59.5166H150.913V59.5876ZM144.832 62.0015H144.968V62.6404H144.9C144.695 62.6404 144.558 62.7114 144.422 62.7114C144.08 62.7114 143.807 62.5694 143.67 62.3565C143.533 62.1435 143.397 61.8595 143.328 61.3625C143.26 60.9365 143.123 60.6525 143.055 60.5105C142.918 60.3685 142.782 60.2975 142.508 60.2975H141.961V62.6404H141.21V57.3866H141.961V59.6586H142.372C142.577 59.6586 142.782 59.6586 142.85 59.5876C142.987 59.5166 143.055 59.4456 143.055 59.3036C143.123 59.1616 143.192 58.9486 143.26 58.6646C143.328 58.3096 143.397 58.0256 143.533 57.8836C143.67 57.6706 143.738 57.5996 143.875 57.5286C144.08 57.4576 144.422 57.3867 144.832 57.4576H144.9V58.0966H144.832C144.627 58.0966 144.353 58.0256 144.285 58.0966C144.217 58.0966 144.217 58.1676 144.148 58.3096C144.08 58.4516 144.012 58.6646 144.012 58.9486C143.943 59.3036 143.875 59.5166 143.738 59.7296C143.67 59.8716 143.533 59.9426 143.397 60.0135C143.533 60.0845 143.67 60.2265 143.807 60.3685C143.943 60.5105 144.012 60.7945 144.08 61.2205C144.148 61.5045 144.217 61.7175 144.217 61.8595C144.285 61.9305 144.285 62.0015 144.353 62.0725C144.422 62.0725 144.49 62.1435 144.627 62.1435C144.627 62.0015 144.763 62.0015 144.832 62.0015ZM140.253 61.9305H140.39V62.5695H140.321C140.048 62.6404 139.706 62.7114 139.365 62.7114C138.681 62.7114 138.203 62.4985 137.861 62.0015C137.52 61.5755 137.383 60.8655 137.383 59.9426C137.383 59.0906 137.588 58.4516 137.93 58.0256C138.271 57.5996 138.818 57.3156 139.501 57.3156C139.775 57.3156 139.98 57.3867 140.321 57.4576H140.39V58.0966L140.253 58.0256C140.048 57.9546 139.775 57.8836 139.501 57.8836C139.023 57.8836 138.681 58.0256 138.476 58.3806C138.271 58.7356 138.135 59.2326 138.135 59.8716C138.135 60.5815 138.271 61.1495 138.476 61.5045C138.681 61.8595 139.023 62.0015 139.433 62.0015C139.706 62.0725 139.98 62.0015 140.253 61.9305ZM116.062 67.2553H116.814V72.5091H116.062V69.9532H114.08V72.5091H113.329V67.2553H114.08V69.3142H116.062V67.2553ZM107.315 69.6692C107.452 69.5982 107.589 69.4562 107.657 69.3142C107.794 69.1012 107.862 68.8172 107.862 68.5332C107.862 68.2492 107.794 67.9652 107.657 67.7523C107.52 67.5393 107.315 67.3973 107.11 67.3263C106.905 67.2553 106.632 67.1843 106.29 67.1843H104.582V72.4381H106.358C106.905 72.4381 107.315 72.2961 107.589 72.0121C107.862 71.7281 107.999 71.3731 107.999 70.8761C107.999 70.5211 107.93 70.2372 107.725 70.0242C107.725 69.8822 107.52 69.7402 107.315 69.6692ZM107.315 70.9471C107.315 71.2311 107.247 71.4441 107.11 71.5861C106.974 71.7281 106.7 71.7991 106.29 71.7991H105.333V70.0242H106.222C106.632 70.0242 106.905 70.0952 107.042 70.2372C107.247 70.3792 107.315 70.5921 107.315 70.9471ZM105.333 69.3852V67.8942H106.29C106.632 67.8942 106.837 67.9652 106.974 68.0362C107.11 68.1782 107.179 68.3202 107.179 68.5332C107.179 68.8172 107.11 69.0302 106.974 69.1722C106.837 69.3142 106.563 69.3852 106.153 69.3852H105.333ZM104.308 62.6404V58.8066L102.122 62.6404H101.575V57.3866H102.258V61.0785L104.377 57.3866H104.992V62.6404H104.308ZM101.643 67.1843C101.028 67.1843 100.55 67.3973 100.277 67.8942C99.9349 68.3912 99.7982 69.0302 99.7982 69.8112C99.7982 70.7341 99.9349 71.3731 100.277 71.8701C100.618 72.3671 101.097 72.5801 101.712 72.5801C102.327 72.5801 102.805 72.3671 103.147 71.8701C103.488 71.3731 103.625 70.7341 103.625 69.8112C103.625 69.0302 103.488 68.3912 103.147 67.8942C102.668 67.3973 102.258 67.1843 101.643 67.1843ZM102.737 69.7402C102.737 70.5921 102.668 71.1601 102.463 71.4441C102.258 71.7281 101.985 71.8701 101.643 71.8701C101.302 71.8701 100.96 71.7281 100.823 71.3731C100.618 71.0181 100.55 70.4502 100.55 69.7402C100.55 69.1012 100.618 68.6042 100.823 68.2492C101.028 67.9652 101.302 67.7523 101.643 67.7523C101.985 67.7523 102.258 67.8942 102.463 68.2492C102.668 68.6752 102.737 69.1722 102.737 69.7402ZM109.024 62.6404H108.477V57.3866H109.16V61.0785L111.279 57.3866H111.894V62.6404H111.21V58.8066L109.024 62.6404ZM120.982 67.2553H121.597V72.5091H120.914V68.6752L118.727 72.5091H118.181V67.2553H118.864V70.9471L120.982 67.2553ZM110.527 67.1843C110.117 67.1843 109.639 67.2553 109.229 67.3973H109.16V68.0362L109.297 67.9652C109.707 67.8232 110.117 67.7523 110.527 67.7523C110.8 67.7523 111.005 67.8232 111.142 67.9652C111.279 68.1072 111.347 68.3912 111.347 68.7462V69.1722C110.937 69.1722 110.595 69.1722 110.254 69.2432C109.912 69.3142 109.639 69.3852 109.434 69.5272C109.229 69.6692 109.024 69.8822 108.887 70.0952C108.75 70.3082 108.75 70.5921 108.75 70.8761C108.75 71.3731 108.887 71.7281 109.16 72.0121C109.434 72.2961 109.775 72.4381 110.185 72.4381C110.732 72.4381 111.142 72.2251 111.484 71.7991L111.552 72.3671H112.099V68.7462C112.099 68.1782 111.962 67.7523 111.689 67.4683C111.415 67.3263 111.074 67.1843 110.527 67.1843ZM110.254 71.8701C109.98 71.8701 109.775 71.7991 109.639 71.6571C109.502 71.5151 109.434 71.3021 109.434 71.0181C109.434 70.6631 109.57 70.3792 109.775 70.2372C110.049 70.0242 110.39 69.9532 110.869 69.9532H111.279V70.6631C111.279 71.0181 111.142 71.3731 110.937 71.5861C110.869 71.7991 110.595 71.8701 110.254 71.8701ZM117.976 61.9305H118.112V62.5695H118.044C117.771 62.6404 117.429 62.7114 117.087 62.7114C116.404 62.7114 115.926 62.4985 115.584 62.0015C115.242 61.5755 115.105 60.8655 115.105 59.9426C115.105 59.0906 115.31 58.4516 115.652 58.0256C115.994 57.5996 116.541 57.3156 117.224 57.3156C117.497 57.3156 117.702 57.3867 118.044 57.4576H118.112V58.0966L117.976 58.0256C117.771 57.9546 117.497 57.8836 117.224 57.8836C116.746 57.8836 116.404 58.0256 116.199 58.3806C115.994 58.7356 115.857 59.2326 115.857 59.8716C115.857 60.5815 115.994 61.1495 116.199 61.5045C116.404 61.8595 116.746 62.0015 117.156 62.0015C117.429 62.0725 117.702 62.0015 117.976 61.9305ZM100.208 62.6404C99.8666 62.6404 99.5932 62.4985 99.4566 62.2855C99.3199 62.0725 99.1832 61.7885 99.1149 61.2915C99.0466 60.8655 98.9099 60.5815 98.8415 60.4395C98.7732 60.2975 98.5682 60.2265 98.2949 60.2265H97.8848V62.5695H97.1331V57.3156H97.8848V59.5876H98.2949C98.4999 59.5876 98.7049 59.5876 98.7732 59.5166C98.9099 59.4456 98.9782 59.3746 98.9782 59.2326C99.0466 59.0906 99.1149 58.8776 99.1832 58.5936C99.2516 58.2386 99.3199 57.9546 99.4566 57.8126C99.5932 57.5996 99.6616 57.5286 99.7982 57.4576C100.003 57.3867 100.345 57.3156 100.755 57.3866H100.823V58.0256H100.755C100.55 58.0256 100.277 57.9546 100.208 58.0256C100.14 58.0256 100.14 58.0966 100.072 58.2386C100.003 58.3806 99.9349 58.5936 99.9349 58.8776C99.8666 59.2326 99.7982 59.4456 99.6616 59.6586C99.5932 59.8006 99.4566 59.8716 99.3199 59.9426C99.4566 60.0135 99.5932 60.1555 99.7299 60.2975C99.8666 60.4395 99.9349 60.7235 100.003 61.1495C100.072 61.4335 100.14 61.6465 100.14 61.7885C100.208 61.8595 100.208 61.9305 100.277 62.0015C100.345 62.0015 100.413 62.0725 100.55 62.0725C100.687 62.0725 100.755 62.0725 100.892 62.0725H101.028V62.7114H100.96C100.55 62.6404 100.345 62.6404 100.208 62.6404ZM72.2589 49.435V32.3956H67.0654C66.3137 32.3956 66.1087 32.0406 66.1087 31.4016V28.4908C66.1087 27.8518 66.3137 27.4968 67.0654 27.4968H82.6459C83.3976 27.4968 83.6026 27.8518 83.6026 28.4908V31.4016C83.6026 32.0406 83.3976 32.3956 82.6459 32.3956H77.5207V49.435C77.5207 50.2159 77.1791 50.4289 76.564 50.4289H73.2156C72.6006 50.4289 72.2589 50.2159 72.2589 49.435ZM89.6845 50.4289H92.7597C93.5797 50.4289 93.853 49.9319 94.263 49.222L101.37 37.2234V49.435C101.37 50.2159 101.712 50.4289 102.327 50.4289H105.675C106.29 50.4289 106.632 50.2159 106.632 49.435V28.4908C106.632 27.8518 106.427 27.4968 105.675 27.4968H102.532C101.712 27.4968 101.438 27.9938 101.028 28.7037L93.9214 40.6313V28.4908C93.9214 27.7098 93.5797 27.4968 92.9647 27.4968H89.7529C89.1379 27.4968 88.7962 27.7098 88.7962 28.4908V49.435C88.7278 50.0739 88.9328 50.4289 89.6845 50.4289ZM153.579 34.8095V43.0452C153.579 48.583 148.522 50.9259 144.558 50.9259C140.526 50.9259 135.606 48.583 135.606 43.0452V34.8095C135.606 29.2717 140.595 26.9288 144.558 26.9288C148.522 26.9288 153.579 29.2717 153.579 34.8095ZM148.317 35.3065C148.317 33.1056 146.745 31.7566 144.558 31.7566C142.372 31.7566 140.8 33.0346 140.8 35.3065V42.5482C140.8 44.7491 142.372 46.0981 144.558 46.0981C146.745 46.0981 148.317 44.8201 148.317 42.5482V35.3065ZM121.597 50.9259C125.766 50.9259 130.344 48.086 130.344 43.6132C130.344 42.7612 130.071 42.4062 129.319 42.4062H126.039C125.288 42.4062 125.219 42.9742 125.151 43.6842C124.878 45.3881 123.442 46.0271 121.597 46.0271C119.411 46.0271 117.839 44.7491 117.839 42.5482V35.3065C117.839 33.1056 119.342 31.8276 121.597 31.8276C123.442 31.8276 124.331 32.3246 125.083 33.5316C125.356 33.9575 125.356 34.5965 126.108 34.5965H129.319C130.071 34.5965 130.344 34.4545 130.344 33.6026C129.934 29.1297 125.766 26.9998 121.597 26.9998C117.566 26.9998 112.577 29.4137 112.577 34.8805V43.0452C112.577 48.512 117.566 50.9259 121.597 50.9259ZM34.4008 26.7158C30.369 26.7158 26.6105 27.8518 23.3304 29.8397C17.9319 33.1766 13.9684 38.8564 12.875 45.5301H55.8583C54.0815 34.8095 45.1979 26.7158 34.4008 26.7158Z" fill="#272D33"/>
<path d="M37.8184 52.0619V72.2961C47.5904 70.7342 55.244 62.4275 56.2007 52.0619H37.8184Z" fill="#87171A"/>
<path d="M31.189 52.0619H12.8066C13.7633 62.4275 21.417 70.8052 31.189 72.2961V52.0619Z" fill="#9CA3A4"/>
</svg>
