<svg width="37" height="32" viewBox="0 0 37 32" fill="none" xmlns="http://www.w3.org/2000/svg">
<path d="M32.0793 24.0363L15.8163 14.1019L16.9591 12.3777C17.1349 12.1314 17.1349 11.8851 16.9591 11.6388C16.7833 11.3925 16.6075 11.3104 16.2559 11.2283L10.7176 11.1462C10.4539 11.1462 10.1902 11.3104 10.0144 11.4746C9.83856 11.7209 9.83856 11.9672 10.0144 12.2135L12.7395 16.7292C12.9153 16.9755 13.0912 17.0576 13.4428 17.0576C13.7065 17.0576 13.9702 16.8934 14.1461 16.7292L15.0251 15.2513L29.0905 23.8721H4.91569V9.09362L8.69575 11.3925L9.48692 10.161L4.56406 7.12315C4.30034 6.95895 4.03661 6.95895 3.77288 7.12315C3.50916 7.28736 3.33334 7.45156 3.33334 7.77997V24.6111C3.33334 25.0216 3.68498 25.35 4.12452 25.35H31.6398C31.9914 25.35 32.2552 25.1037 32.3431 24.8574C32.5189 24.529 32.3431 24.2006 32.0793 24.0363Z" fill="#666666"/>
</svg>
