<?xml version="1.0" encoding="utf-8"?>
<!-- Generator: Adobe Illustrator 27.1.1, SVG Export Plug-In . SVG Version: 6.00 Build 0)  -->
<svg version="1.1" id="Слой_1" xmlns="http://www.w3.org/2000/svg" xmlns:xlink="http://www.w3.org/1999/xlink" x="0px" y="0px"
	 viewBox="0 0 36 32" style="enable-background:new 0 0 36 32;" xml:space="preserve">
<style type="text/css">
	.st0{fill:#666666;}
</style>
<path class="st0" d="M0,22.4V8.3c0-0.2,0.2-0.4,0.4-0.4c0.2,0,0.4,0.2,0.4,0.4v14.1c0,0.2-0.2,0.4-0.4,0.4C0.2,22.8,0,22.6,0,22.4z
	 M35.2,22.4V8.3c0-0.2,0.2-0.4,0.4-0.4c0.2,0,0.4,0.2,0.4,0.4v14.1c0,0.2-0.2,0.4-0.4,0.4C35.4,22.8,35.2,22.6,35.2,22.4z"/>
<path class="st0" d="M29.3,12.9L29.3,12.9l5.5,2l0.1,0c0.3,0.2,0.3,0.6,0,0.7l-0.1,0l-5.4,2c-0.4,0.1-0.7-0.3-0.5-0.6l0.9-1.4H6.2
	l0.9,1.4l0,0.1c0.1,0.3-0.1,0.6-0.5,0.6l-0.1,0l-5.4-2c-0.4-0.1-0.4-0.7,0-0.8l5.4-2l0.1,0c0.3-0.1,0.6,0.3,0.5,0.6l0,0.1l-0.9,1.3
	h23.5l-0.9-1.3C28.7,13.3,28.9,12.9,29.3,12.9z"/>
</svg>
