<?xml version="1.0" encoding="utf-8"?>
<!-- Generator: Adobe Illustrator 27.1.1, SVG Export Plug-In . SVG Version: 6.00 Build 0)  -->
<svg version="1.1" id="Слой_1" xmlns="http://www.w3.org/2000/svg" xmlns:xlink="http://www.w3.org/1999/xlink" x="0px" y="0px"
	 viewBox="0 0 36 32" style="enable-background:new 0 0 36 32;" xml:space="preserve">
<style type="text/css">
	.st0{fill:#666666;}
	.st1{fill-rule:evenodd;clip-rule:evenodd;fill:#666666;}
</style>
<g>
	<path class="st0" d="M27,29.3C27,29.3,27,29.4,27,29.3l-4.4,1.9c0,0,0,0,0,0l1-1.9c0,0,0,0,0,0l-1-1.8c0,0,0,0,0,0L27,29.3z"/>
	<path class="st0" d="M33.6,6.9c0.1,0.1,0.1,0.3,0.1,0.5V20c0,0.5-0.3,0.9-0.8,1.2l-6,3.1V10L33.6,6.9z M10.4,6.1
		c0.1,0,0.2-0.1,0.4-0.1h21.5c0.1,0,0.3,0,0.4,0.1l-6.5,3H4l6.3-2.9L10.4,6.1L10.4,6.1z M4.3,24.7c-0.7,0-1.3-0.6-1.3-1.4V10.5
		c0-0.1,0-0.2,0-0.3h22.8v14.6H4.3z M33.4,22.2c0.8-0.4,1.3-1.2,1.3-2.2V7.4c0-1.3-1.1-2.4-2.4-2.4H10.8c-0.3,0-0.7,0.1-1,0.3
		l-6.5,3l0,0c-0.9,0.4-1.4,1.2-1.4,2.2v12.9c0,1.3,1.1,2.4,2.4,2.4h21.6c0.3,0,0.8-0.1,1.1-0.3L33.4,22.2L33.4,22.2z"/>
	<path class="st1" d="M22.8,27L22.8,27c-0.5-0.1-0.9,0.4-0.7,0.8l0.6,1H2.4c-0.3,0-0.5,0.2-0.5,0.5c0,0.3,0.2,0.5,0.5,0.5h20.3
		L22.1,31c-0.3,0.5,0.2,1,0.7,0.8l4.4-1.9l0.1,0c0.3-0.2,0.3-0.7,0-0.9l-0.1,0L22.8,27z"/>
</g>
</svg>
