<svg width="81" height="28" viewBox="0 0 81 28" fill="none" xmlns="http://www.w3.org/2000/svg">
<path d="M43.6236 23.5953C43.4674 23.5953 43.3112 23.636 43.194 23.7176C43.0769 23.7584 42.9988 23.84 42.9207 23.9623L42.8816 23.636H42.5692V27.4699H42.9988V26.6134C43.155 26.6542 43.2721 26.6542 43.3893 26.6542C43.7798 26.6542 44.0922 26.5318 44.2874 26.2463C44.4826 26.0016 44.5998 25.5938 44.5998 25.0635C44.5998 24.5741 44.5217 24.1663 44.3655 23.9215C44.2093 23.7176 43.936 23.5953 43.6236 23.5953ZM44.1702 25.0635C44.1702 25.5122 44.0921 25.8385 43.975 26.0424C43.8579 26.2055 43.6626 26.2871 43.3893 26.2871C43.2721 26.2871 43.1159 26.2871 42.9597 26.2463V24.9004C42.9597 24.5741 42.9988 24.3702 43.1159 24.207C43.2331 24.0439 43.3502 24.0031 43.5845 24.0031C43.7798 24.0031 43.9359 24.0847 44.014 24.2478C44.1312 24.411 44.1702 24.6557 44.1702 25.0635ZM43.7798 20.9034L43.8188 20.5363H43.7407C43.4674 20.6179 43.2331 20.6587 43.0378 20.6587C42.8035 20.6587 42.6473 20.5771 42.5302 20.414C42.413 20.2508 42.374 19.9653 42.3349 19.639H43.8969V19.5983C43.8969 19.3535 43.8969 19.1088 43.8579 18.9049C43.8188 18.701 43.7798 18.5378 43.7017 18.4155C43.6236 18.2523 43.5064 18.1708 43.3893 18.0892C43.2721 18.0076 43.1159 17.9668 42.9597 17.9668C42.6083 17.9668 42.374 18.13 42.1787 18.4155C41.9835 18.701 41.9054 19.068 41.9054 19.5167C41.9054 20.0061 41.9835 20.414 42.1787 20.6587C42.374 20.9034 42.6473 21.0665 42.9988 21.0665C43.3112 21.0258 43.5455 20.985 43.7798 20.9034ZM42.374 19.2312C42.413 18.9049 42.4521 18.6602 42.5692 18.497C42.6864 18.3339 42.8035 18.2523 42.9988 18.2523C43.3502 18.2523 43.5064 18.5786 43.5064 19.1904H42.374V19.2312ZM46.6694 23.636H47.0989V23.7176L46.1617 26.8581C46.0836 27.1028 46.0056 27.266 45.8884 27.3883C45.7713 27.4699 45.6151 27.5515 45.4198 27.5515C45.3027 27.5515 45.1855 27.5515 45.0684 27.5107H45.0293V27.1436H45.1074C45.2636 27.1844 45.3417 27.1844 45.4589 27.1844C45.576 27.1844 45.6541 27.1436 45.6932 27.1028C45.7322 27.062 45.8103 26.9805 45.8494 26.695H45.7713L44.9122 23.6768H45.3417L46.0056 26.124L46.6694 23.636ZM38.43 20.9034L38.4691 20.5363H38.391C38.1176 20.6179 37.8833 20.6587 37.6881 20.6587C37.4538 20.6587 37.2976 20.5771 37.1805 20.414C37.0633 20.2508 37.0243 19.9653 36.9852 19.639H38.5472V19.5983C38.5472 19.3535 38.5472 19.1088 38.5081 18.9049C38.4691 18.701 38.43 18.5378 38.3519 18.4155C38.2738 18.2523 38.1567 18.1708 38.0395 18.0892C37.9224 18.0076 37.7662 17.9668 37.61 17.9668C37.2586 17.9668 37.0243 18.13 36.829 18.4155C36.6338 18.701 36.5557 19.068 36.5557 19.5167C36.5557 20.0061 36.6338 20.414 36.829 20.6587C37.0243 20.9034 37.2976 21.0665 37.649 21.0665C37.9614 21.0258 38.1957 20.985 38.43 20.9034ZM37.0243 19.2312C37.0633 18.9049 37.1024 18.6602 37.2195 18.497C37.3367 18.3339 37.4538 18.2523 37.649 18.2523C38.0005 18.2523 38.1567 18.5786 38.1567 19.1904H37.0243V19.2312ZM35.1109 18.3339H34.3299V17.9668H36.2823V18.3339H35.5014V20.985H35.0718V18.3339H35.1109ZM35.5794 23.5953C35.228 23.5953 34.9547 23.7176 34.7985 24.0031C34.6032 24.2886 34.5251 24.6557 34.5251 25.1043C34.5251 25.6345 34.6032 26.0016 34.7985 26.2871C34.9937 26.5726 35.2671 26.695 35.6185 26.695C35.9699 26.695 36.2433 26.5726 36.4385 26.2871C36.6338 26.0016 36.7119 25.6345 36.7119 25.1043C36.7119 24.6557 36.6338 24.2886 36.4385 24.0031C36.1652 23.7176 35.8918 23.5953 35.5794 23.5953ZM36.2042 25.0635C36.2042 25.553 36.1652 25.8793 36.048 26.0424C35.9309 26.2055 35.7747 26.2871 35.5794 26.2871C35.3842 26.2871 35.189 26.2055 35.1109 26.0016C34.9937 25.7977 34.9547 25.4714 34.9547 25.0635C34.9547 24.6965 34.9937 24.411 35.1109 24.207C35.228 24.0439 35.3842 23.9215 35.5794 23.9215C35.7747 23.9215 35.9309 24.0031 36.048 24.207C36.1652 24.4518 36.2042 24.7373 36.2042 25.0635ZM44.2874 20.9442H44.2483V20.5771H44.2874C44.4045 20.6179 44.5607 20.6179 44.5998 20.5771C44.6388 20.5363 44.6779 20.4955 44.6779 20.4548C44.7169 20.3732 44.7169 20.2508 44.756 20.0877C44.795 19.8838 44.8341 19.7206 44.9122 19.639C44.9512 19.5575 45.0293 19.4759 45.1465 19.4351C45.0684 19.3943 44.9903 19.3128 44.9512 19.272C44.8731 19.1904 44.8341 19.0273 44.795 18.8233C44.756 18.6602 44.756 18.5378 44.7169 18.497C44.6779 18.4155 44.6779 18.3747 44.6388 18.3747C44.5998 18.3339 44.4436 18.3339 44.3264 18.3747H44.2874V18.0076H44.3264C44.5998 17.9668 44.756 18.0076 44.8731 18.0484C44.9512 18.0892 45.0293 18.1708 45.0684 18.2523C45.1074 18.3339 45.1855 18.497 45.2246 18.701C45.2636 18.8641 45.3027 19.0273 45.3417 19.068C45.3808 19.1496 45.4198 19.1904 45.4979 19.2312C45.576 19.272 45.6541 19.272 45.7713 19.272H45.9665V17.9668H46.396V19.272H46.5913C46.7084 19.272 46.7865 19.272 46.8646 19.2312C46.9427 19.1904 46.9818 19.1496 46.9818 19.068C47.0208 18.9865 47.0599 18.8641 47.0989 18.701C47.138 18.497 47.177 18.3339 47.2551 18.2115C47.3332 18.13 47.3723 18.0484 47.4504 18.0076C47.5675 17.9668 47.7628 17.9668 47.9971 17.9668H48.0361V18.3339H47.9971C47.8799 18.3339 47.7237 18.2931 47.6847 18.3339C47.6847 18.3339 47.6456 18.3747 47.6066 18.4563C47.5675 18.5378 47.5285 18.6602 47.5285 18.8233C47.4894 19.0273 47.4504 19.1496 47.3723 19.272C47.3332 19.3535 47.2551 19.3943 47.177 19.4351C47.2551 19.4759 47.3332 19.5575 47.4113 19.639C47.4894 19.7206 47.5285 19.8838 47.5675 20.1285C47.6066 20.2916 47.6456 20.414 47.6456 20.4955C47.6847 20.5363 47.6847 20.6179 47.7237 20.6179C47.8018 20.6587 47.958 20.6587 48.0361 20.6179H48.0752V20.985H48.0361C47.919 20.985 47.8409 21.0258 47.7628 21.0258C47.5675 21.0258 47.4113 20.9442 47.3332 20.8626C47.2551 20.7403 47.177 20.5771 47.138 20.2916C47.0989 20.0469 47.0208 19.8838 46.9818 19.8022C46.9427 19.7206 46.8256 19.6798 46.6694 19.6798H46.4741V21.0258H46.0446V19.6798H45.8494C45.6932 19.6798 45.576 19.7206 45.537 19.8022C45.4589 19.8838 45.4198 20.0469 45.3808 20.2916C45.3417 20.5363 45.2636 20.6995 45.1855 20.8218C45.1074 20.9442 44.9512 21.0258 44.7169 21.0258C44.4826 20.985 44.3655 20.985 44.2874 20.9442ZM38.2738 23.7584C38.0005 23.7584 37.8052 23.84 37.61 24.0439C37.649 23.7992 37.7271 23.636 37.8052 23.5137C37.8833 23.3913 38.0395 23.3098 38.2348 23.3098H38.4691C38.6643 23.3098 38.8205 23.269 38.9377 23.1874C39.0548 23.1058 39.1329 22.9019 39.172 22.5756V22.5348H38.8205V22.5756C38.7815 22.7795 38.7424 22.8611 38.7034 22.8611C38.6643 22.9019 38.5862 22.9019 38.4691 22.9019H38.1957C37.8443 22.9019 37.571 23.065 37.4148 23.4321C37.2586 23.7584 37.1414 24.2478 37.1414 24.9004C37.1414 25.5122 37.2195 25.9608 37.4148 26.2463C37.571 26.5318 37.8443 26.6542 38.2348 26.6542C38.5862 26.6542 38.8596 26.5318 39.0548 26.2463C39.2501 26.0016 39.3282 25.6345 39.3282 25.1451C39.3282 24.7373 39.2501 24.3702 39.0548 24.1255C38.8596 23.8808 38.5862 23.7584 38.2738 23.7584ZM38.2348 26.2871C38.0395 26.2871 37.8833 26.2055 37.7662 26.0016C37.649 25.7977 37.61 25.5122 37.61 25.1859C37.61 24.8188 37.649 24.5741 37.7662 24.411C37.8833 24.2478 38.0395 24.1663 38.2348 24.1663C38.43 24.1663 38.5862 24.2478 38.7034 24.4518C38.8205 24.6557 38.8596 24.9004 38.8596 25.2267C38.8596 25.5938 38.8205 25.8793 38.7034 26.0832C38.5862 26.2055 38.43 26.2871 38.2348 26.2871ZM39.7968 20.5771C39.7577 20.7403 39.6796 20.8218 39.5625 20.9034C39.4844 20.985 39.3282 20.985 39.172 20.985C39.0939 20.985 39.0158 20.985 38.8986 20.9442H38.8596V20.5363H38.9377C39.0158 20.5363 39.0548 20.5771 39.1329 20.5771C39.2501 20.5771 39.3282 20.5363 39.3672 20.4548C39.4063 20.3732 39.4844 20.1285 39.5234 19.8022C39.6015 19.4351 39.6406 19.068 39.6406 18.7418L39.6796 18.2115L39.9139 17.9668H41.2806V20.985H40.9292V18.3339H40.1482L40.1091 18.701C40.0701 19.1088 40.031 19.4759 39.992 19.843C39.9139 20.1693 39.8749 20.414 39.7968 20.5771ZM40.8511 23.5953C40.4996 23.5953 40.2263 23.7176 40.0701 24.0031C39.8748 24.2886 39.7968 24.6557 39.7968 25.1043C39.7968 25.6345 39.8748 26.0016 40.0701 26.2871C40.2653 26.5726 40.5387 26.695 40.8901 26.695C41.2416 26.695 41.5149 26.5726 41.7102 26.2871C41.9054 26.0016 41.9835 25.6345 41.9835 25.1043C41.9835 24.6557 41.9054 24.2886 41.7102 24.0031C41.4759 23.7176 41.2025 23.5953 40.8511 23.5953ZM41.5149 25.0635C41.5149 25.553 41.4759 25.8793 41.3587 26.0424C41.2416 26.2055 41.0854 26.2871 40.8901 26.2871C40.6949 26.2871 40.4996 26.2055 40.4215 26.0016C40.3044 25.7977 40.2653 25.4714 40.2653 25.0635C40.2653 24.6965 40.3044 24.411 40.4215 24.207C40.5387 24.0439 40.6949 23.9215 40.8901 23.9215C41.0854 23.9215 41.2416 24.0031 41.3587 24.207C41.4368 24.4518 41.5149 24.7373 41.5149 25.0635ZM49.3638 23.636H47.958L47.7237 23.8808L47.6847 24.3294C47.6456 24.9412 47.5285 25.5938 47.3723 26.2871H47.177L47.2161 27.3475H47.5675L47.6066 26.6542H49.2466L49.2857 27.3475H49.6371L49.6762 26.2871H49.3638V23.636ZM48.9342 24.0031V26.2871H47.8018C47.958 25.6753 48.0361 25.0228 48.1142 24.3702L48.1533 24.0439H48.9342V24.0031ZM77.2058 17.926C76.8543 17.926 76.581 18.0484 76.4248 18.3339C76.2295 18.6194 76.1514 18.9865 76.1514 19.4351C76.1514 19.9653 76.2295 20.3324 76.4248 20.6179C76.62 20.9034 76.8934 21.0258 77.2448 21.0258C77.5963 21.0258 77.8696 20.9034 78.0648 20.6179C78.2601 20.3324 78.3382 19.9653 78.3382 19.4351C78.3382 18.9865 78.2601 18.6194 78.0648 18.3339C77.8306 18.0484 77.5572 17.926 77.2058 17.926ZM77.8696 19.3943C77.8696 19.8838 77.8306 20.21 77.7134 20.3732C77.5963 20.5363 77.4401 20.6179 77.2448 20.6179C77.0496 20.6179 76.8934 20.5363 76.7762 20.3324C76.6591 20.1285 76.62 19.8022 76.62 19.3943C76.62 19.0273 76.6591 18.7418 76.7762 18.5378C76.8934 18.3747 77.0496 18.2523 77.2448 18.2523C77.4401 18.2523 77.5963 18.3339 77.7134 18.5378C77.7915 18.7825 77.8696 19.068 77.8696 19.3943ZM64.3586 17.9668H65.7253V20.985H65.2958V18.3339H64.5148L64.4758 18.701C64.4367 19.1088 64.3977 19.4759 64.3586 19.843C64.3196 20.21 64.2415 20.4548 64.2024 20.6179C64.1634 20.781 64.0853 20.8626 63.9681 20.9442C63.89 21.0258 63.7338 21.0258 63.5776 21.0258C63.4995 21.0258 63.4214 21.0258 63.3043 20.985H63.2652V20.5771H63.3433C63.4214 20.5771 63.4605 20.6179 63.5386 20.6179C63.6557 20.6179 63.7338 20.5771 63.7729 20.4955C63.8119 20.4548 63.851 20.2916 63.9291 19.843C64.0072 19.4759 64.0462 19.1088 64.0462 18.7825L64.0853 18.2523L64.3586 17.9668ZM63.1091 20.9442C62.9919 20.9442 62.9138 20.985 62.8357 20.985C62.6405 20.985 62.4843 20.9034 62.4062 20.781C62.3281 20.6587 62.25 20.4955 62.2109 20.21C62.1719 19.9653 62.0938 19.8022 62.0547 19.7206C62.0157 19.639 61.8985 19.5983 61.7423 19.5983H61.508V20.9442H61.0785V17.926H61.508V19.2312H61.7423C61.8595 19.2312 61.9766 19.2312 62.0157 19.1904C62.0938 19.1496 62.1328 19.1088 62.1328 19.0273C62.1719 18.9457 62.2109 18.8233 62.25 18.6602C62.289 18.4563 62.3281 18.2931 62.4062 18.2115C62.4843 18.0892 62.5233 18.0484 62.6014 18.0076C62.7186 17.9668 62.9138 17.926 63.1481 17.9668H63.1871V18.3339H63.1481C63.0309 18.3339 62.8748 18.2931 62.8357 18.3339C62.8357 18.3339 62.7967 18.3747 62.7576 18.4563C62.7186 18.5378 62.6795 18.6602 62.6795 18.8233C62.6405 19.0273 62.6014 19.1496 62.5233 19.272C62.4843 19.3535 62.4062 19.3943 62.3281 19.4351C62.4062 19.4759 62.4843 19.5575 62.5624 19.639C62.6405 19.7206 62.6795 19.8838 62.7186 20.1285C62.7576 20.2916 62.7967 20.414 62.7967 20.4955C62.8357 20.5363 62.8357 20.5771 62.8748 20.6179C62.9138 20.6179 62.9529 20.6587 63.031 20.6587C63.1091 20.6587 63.1481 20.6587 63.2262 20.6587H63.3043V20.9442H63.1091ZM70.8408 17.9668H69.435L69.2007 18.2115L69.1617 18.6602C69.1226 19.272 69.0055 19.9245 68.8493 20.6179H68.654L68.6931 21.6783H69.0445L69.0836 20.985H70.7236L70.7627 21.6783H71.1141L71.1532 20.6179H70.8408V17.9668ZM70.4112 18.3339V20.6179H69.2788C69.435 20.0061 69.5131 19.3535 69.5912 18.701L69.6302 18.3747H70.4112V18.3339ZM64.9053 24.0031C64.8272 23.84 64.7101 23.7584 64.5929 23.6768C64.4758 23.5953 64.3196 23.5545 64.1634 23.5545C63.8119 23.5545 63.5776 23.7176 63.3824 24.0031C63.1871 24.2886 63.1091 24.6557 63.1091 25.1043C63.1091 25.5938 63.1871 26.0016 63.3824 26.2463C63.5776 26.491 63.851 26.6542 64.2024 26.6542C64.4367 26.6542 64.7101 26.6134 64.9444 26.5318H64.9834V26.1648H64.9053C64.632 26.2463 64.3977 26.2871 64.2024 26.2871C63.9681 26.2871 63.8119 26.2055 63.6948 26.0424C63.5776 25.8793 63.5386 25.5938 63.4995 25.2675H65.0615V25.2267C65.0615 24.982 65.0615 24.7373 65.0225 24.5333C65.0225 24.3294 64.9834 24.1663 64.9053 24.0031ZM63.5386 24.9004C63.5776 24.5741 63.6167 24.3294 63.7338 24.1663C63.851 24.0031 63.9681 23.9215 64.1634 23.9215C64.5148 23.9215 64.671 24.2478 64.671 24.8596H63.5386V24.9004ZM67.3263 17.926C67.0921 17.926 66.8187 17.9668 66.5844 18.0484H66.5454V18.4155L66.6235 18.3747C66.8578 18.2931 67.0921 18.2523 67.3263 18.2523C67.4825 18.2523 67.5997 18.2931 67.6778 18.3747C67.7559 18.4563 67.7949 18.6194 67.7949 18.8233V19.068C67.5607 19.068 67.3654 19.068 67.1702 19.1088C66.9749 19.1496 66.8187 19.1904 66.7016 19.272C66.5844 19.3535 66.4673 19.4759 66.3892 19.5983C66.3111 19.7206 66.3111 19.8838 66.3111 20.0469C66.3111 20.3324 66.3892 20.5363 66.5454 20.6995C66.7016 20.8626 66.8968 20.9442 67.1311 20.9442C67.4435 20.9442 67.6778 20.8218 67.873 20.5771L67.9121 20.9034H68.2245V18.8233C68.2245 18.497 68.1464 18.2523 67.9902 18.0892C67.834 18.0076 67.6387 17.926 67.3263 17.926ZM67.7949 19.5167V19.9245C67.7949 20.1285 67.7168 20.3324 67.5997 20.4548C67.4826 20.5771 67.3264 20.6587 67.1702 20.6587C67.014 20.6587 66.8968 20.6179 66.8187 20.5363C66.7406 20.4548 66.7016 20.3324 66.7016 20.1693C66.7016 19.9653 66.7797 19.8022 66.8968 19.7206C67.053 19.5983 67.2483 19.5575 67.5216 19.5575H67.7949V19.5167ZM80.7592 19.5575C80.7592 19.272 80.7592 19.068 80.7202 18.8641C80.6811 18.6602 80.6421 18.497 80.564 18.3747C80.4859 18.2115 80.3687 18.13 80.2516 18.0484C80.1344 17.9668 79.9782 17.926 79.8221 17.926C79.4706 17.926 79.2363 18.0892 79.0411 18.3747C78.8458 18.6602 78.7677 19.0273 78.7677 19.4759C78.7677 19.9653 78.8458 20.3732 79.0411 20.6179C79.2363 20.8626 79.5097 21.0258 79.8611 21.0258C80.0954 21.0258 80.3687 20.985 80.603 20.9034H80.6421V20.5363H80.564C80.2906 20.6179 80.0564 20.6587 79.8611 20.6587C79.6268 20.6587 79.4706 20.5771 79.3535 20.414C79.2363 20.2508 79.1973 19.9653 79.1582 19.639H80.7202V19.5575H80.7592ZM79.2363 19.2312C79.2754 18.9049 79.3144 18.6602 79.4316 18.497C79.5487 18.3339 79.6659 18.2523 79.8611 18.2523C80.2125 18.2523 80.3687 18.5786 80.3687 19.1904H79.2363V19.2312ZM75.761 20.6179H75.839V20.985H75.8C75.6829 20.985 75.6048 21.0258 75.5267 21.0258C75.3314 21.0258 75.1752 20.9442 75.0971 20.8218C75.019 20.6995 74.9409 20.5363 74.9019 20.2508C74.8628 20.0061 74.7847 19.843 74.7457 19.7614C74.6676 19.6798 74.5895 19.639 74.4333 19.639H74.1209V20.985H73.6913V17.9668H74.1209V19.272H74.3552C74.4723 19.272 74.5895 19.272 74.6285 19.2312C74.7066 19.1904 74.7457 19.1496 74.7457 19.068C74.7847 18.9865 74.8238 18.8641 74.8628 18.701C74.9019 18.497 74.9409 18.3339 75.019 18.2523C75.0971 18.13 75.1362 18.0892 75.2143 18.0484C75.3314 18.0076 75.5267 17.9668 75.761 18.0076H75.8V18.3747H75.761C75.6438 18.3747 75.4876 18.3339 75.4486 18.3747C75.4095 18.3747 75.4095 18.4155 75.3705 18.497C75.3314 18.5786 75.2924 18.701 75.2924 18.8641C75.2533 19.068 75.2143 19.1904 75.1362 19.3128C75.0971 19.3943 75.019 19.4351 74.9409 19.4759C75.019 19.5167 75.0971 19.5983 75.1752 19.6798C75.2533 19.7614 75.2924 19.9245 75.3314 20.1693C75.3705 20.3324 75.4095 20.4548 75.4095 20.5363C75.4486 20.5771 75.4486 20.6179 75.4876 20.6587C75.5267 20.6587 75.5657 20.6995 75.6438 20.6995C75.6438 20.6179 75.7219 20.6179 75.761 20.6179ZM73.1447 20.5771H73.2228V20.9442H73.1837C73.0275 20.985 72.8323 21.0258 72.637 21.0258C72.2465 21.0258 71.9732 20.9034 71.7779 20.6179C71.5827 20.3732 71.5046 19.9653 71.5046 19.4351C71.5046 18.9457 71.6217 18.5786 71.817 18.3339C72.0122 18.0892 72.3246 17.926 72.7151 17.926C72.8713 17.926 72.9885 17.9668 73.1837 18.0076H73.2228V18.3747L73.1447 18.3339C73.0275 18.2931 72.8713 18.2523 72.7151 18.2523C72.4418 18.2523 72.2465 18.3339 72.1294 18.5378C72.0122 18.7418 71.9341 19.0273 71.9341 19.3943C71.9341 19.8022 72.0122 20.1285 72.1294 20.3324C72.2465 20.5363 72.4418 20.6179 72.6761 20.6179C72.8323 20.6587 72.9885 20.6179 73.1447 20.5771ZM59.3213 23.636H59.7508V26.6542H59.3213V25.1859H58.1889V26.6542H57.7593V23.636H58.1889V24.8188H59.3213V23.636ZM54.323 25.0228C54.4011 24.982 54.4792 24.9004 54.5183 24.8188C54.5964 24.6965 54.6354 24.5333 54.6354 24.3702C54.6354 24.207 54.5964 24.0439 54.5183 23.9215C54.4402 23.7992 54.323 23.7176 54.2059 23.6768C54.0887 23.636 53.9325 23.5953 53.7373 23.5953H52.761V26.6134H53.7763C54.0887 26.6134 54.323 26.5318 54.4792 26.3687C54.6354 26.2055 54.7135 26.0016 54.7135 25.7161C54.7135 25.5122 54.6744 25.349 54.5573 25.2267C54.5573 25.1451 54.4402 25.0635 54.323 25.0228ZM54.323 25.7569C54.323 25.92 54.284 26.0424 54.2059 26.124C54.1278 26.2055 53.9716 26.2463 53.7373 26.2463H53.1906V25.2267H53.6982C53.9325 25.2267 54.0887 25.2675 54.1668 25.349C54.284 25.4306 54.323 25.553 54.323 25.7569ZM53.1906 24.8596V24.0031H53.7373C53.9325 24.0031 54.0497 24.0439 54.1278 24.0847C54.2059 24.1663 54.2449 24.2478 54.2449 24.3702C54.2449 24.5333 54.2059 24.6557 54.1278 24.7373C54.0497 24.8188 53.8935 24.8596 53.6592 24.8596H53.1906ZM52.6048 20.985V18.7825L51.3553 20.985H51.0429V17.9668H51.4334V20.0877L52.6439 17.9668H52.9953V20.985H52.6048ZM51.0819 23.5953C50.7305 23.5953 50.4571 23.7176 50.301 24.0031C50.1057 24.2886 50.0276 24.6557 50.0276 25.1043C50.0276 25.6345 50.1057 26.0016 50.301 26.2871C50.4962 26.5726 50.7695 26.695 51.121 26.695C51.4724 26.695 51.7458 26.5726 51.941 26.2871C52.1363 26.0016 52.2144 25.6345 52.2144 25.1043C52.2144 24.6557 52.1363 24.2886 51.941 24.0031C51.6677 23.7176 51.4334 23.5953 51.0819 23.5953ZM51.7067 25.0635C51.7067 25.553 51.6677 25.8793 51.5505 26.0424C51.4334 26.2055 51.2772 26.2871 51.0819 26.2871C50.8867 26.2871 50.6914 26.2055 50.6133 26.0016C50.4962 25.7977 50.4571 25.4714 50.4571 25.0635C50.4571 24.6965 50.4962 24.411 50.6133 24.207C50.7305 24.0439 50.8867 23.9215 51.0819 23.9215C51.2772 23.9215 51.4334 24.0031 51.5505 24.207C51.6677 24.4518 51.7067 24.7373 51.7067 25.0635ZM55.2992 20.985H54.9868V17.9668H55.3773V20.0877L56.5879 17.9668H56.9393V20.985H56.5488V18.7825L55.2992 20.985ZM62.1328 23.636H62.4843V26.6542H62.0938V24.4518L60.8442 26.6542H60.5318V23.636H60.9223V25.7569L62.1328 23.636ZM56.1583 23.5953C55.924 23.5953 55.6507 23.636 55.4164 23.7176H55.3773V24.0847L55.4554 24.0439C55.6897 23.9623 55.924 23.9215 56.1583 23.9215C56.3145 23.9215 56.4317 23.9623 56.5098 24.0439C56.5878 24.1255 56.6269 24.2886 56.6269 24.4925V24.7373C56.3926 24.7373 56.1974 24.7373 56.0021 24.778C55.8069 24.8188 55.6507 24.8596 55.5335 24.9412C55.4164 25.0228 55.2992 25.1451 55.2211 25.2675C55.143 25.3898 55.143 25.553 55.143 25.7161C55.143 26.0016 55.2211 26.2055 55.3773 26.3687C55.5335 26.5318 55.7288 26.6134 55.9631 26.6134C56.2755 26.6134 56.5097 26.491 56.705 26.2463L56.744 26.5726H57.0564V24.4925C57.0564 24.1663 56.9783 23.9215 56.8222 23.7584C56.666 23.6768 56.4707 23.5953 56.1583 23.5953ZM56.0021 26.2871C55.8459 26.2871 55.7288 26.2463 55.6507 26.1648C55.5726 26.0832 55.5335 25.9608 55.5335 25.7977C55.5335 25.5938 55.6116 25.4306 55.7288 25.349C55.885 25.2267 56.0802 25.1859 56.3536 25.1859H56.5879V25.5938C56.5879 25.7977 56.5098 26.0016 56.3926 26.124C56.3536 26.2463 56.1974 26.2871 56.0021 26.2871ZM60.4147 20.5771H60.4928V20.9442H60.4537C60.2975 20.985 60.1023 21.0258 59.907 21.0258C59.5165 21.0258 59.2432 20.9034 59.0479 20.6179C58.8527 20.3732 58.7746 19.9653 58.7746 19.4351C58.7746 18.9457 58.8917 18.5786 59.087 18.3339C59.2822 18.0892 59.5946 17.926 59.9851 17.926C60.1413 17.926 60.2585 17.9668 60.4537 18.0076H60.4928V18.3747L60.4147 18.3339C60.2975 18.2931 60.1413 18.2523 59.9851 18.2523C59.7118 18.2523 59.5165 18.3339 59.3994 18.5378C59.2822 18.7418 59.2041 19.0273 59.2041 19.3943C59.2041 19.8022 59.2822 20.1285 59.3994 20.3324C59.5165 20.5363 59.7118 20.6179 59.9461 20.6179C60.1023 20.6587 60.2585 20.6179 60.4147 20.5771ZM50.2619 20.985C50.0667 20.985 49.9105 20.9034 49.8324 20.781C49.7543 20.6587 49.6762 20.4955 49.6371 20.21C49.5981 19.9653 49.52 19.8022 49.4809 19.7206C49.4419 19.639 49.3247 19.5983 49.1685 19.5983H48.9342V20.9442H48.5047V17.926H48.9342V19.2312H49.1685C49.2857 19.2312 49.4028 19.2312 49.4419 19.1904C49.52 19.1496 49.559 19.1088 49.559 19.0273C49.5981 18.9457 49.6371 18.8233 49.6762 18.6602C49.7152 18.4563 49.7543 18.2931 49.8324 18.2115C49.9105 18.0892 49.9495 18.0484 50.0276 18.0076C50.1448 17.9668 50.34 17.926 50.5743 17.9668H50.6133V18.3339H50.5743C50.4572 18.3339 50.301 18.2931 50.2619 18.3339C50.2229 18.3339 50.2229 18.3747 50.1838 18.4563C50.1448 18.5378 50.1057 18.6602 50.1057 18.8233C50.0667 19.0273 50.0276 19.1496 49.9495 19.272C49.9105 19.3535 49.8324 19.3943 49.7543 19.4351C49.8324 19.4759 49.9105 19.5575 49.9886 19.639C50.0667 19.7206 50.1057 19.8838 50.1448 20.1285C50.1838 20.2916 50.2229 20.414 50.2229 20.4955C50.2619 20.5363 50.2619 20.5771 50.301 20.6179C50.34 20.6179 50.379 20.6587 50.4571 20.6587C50.5352 20.6587 50.5743 20.6587 50.6524 20.6587H50.7305V21.0258H50.6914C50.4571 20.985 50.34 20.985 50.2619 20.985ZM34.2908 13.3988V3.61028H31.3231C30.8936 3.61028 30.7764 3.40635 30.7764 3.03928V1.36706C30.7764 0.999992 30.8936 0.796063 31.3231 0.796063H40.2263C40.6558 0.796063 40.773 0.999992 40.773 1.36706V3.03928C40.773 3.40635 40.6558 3.61028 40.2263 3.61028H37.2976V13.3988C37.2976 13.8475 37.1024 13.9698 36.7509 13.9698H34.8375C34.4861 13.9698 34.2908 13.8475 34.2908 13.3988ZM44.2483 13.9698H46.0056C46.4741 13.9698 46.6303 13.6843 46.8646 13.2765L50.9257 6.3837V13.3988C50.9257 13.8475 51.121 13.9698 51.4724 13.9698H53.3858C53.7373 13.9698 53.9325 13.8475 53.9325 13.3988V1.36706C53.9325 0.999992 53.8154 0.796063 53.3858 0.796063H51.5896C51.121 0.796063 50.9648 1.08156 50.7305 1.48942L46.6694 8.34141V1.36706C46.6694 0.918421 46.4741 0.796063 46.1227 0.796063H44.2874C43.936 0.796063 43.7407 0.918421 43.7407 1.36706V13.3988C43.7017 13.7659 43.8188 13.9698 44.2483 13.9698ZM80.7592 4.99699V9.72813C80.7592 12.9094 77.8696 14.2553 75.6048 14.2553C73.3009 14.2553 70.4893 12.9094 70.4893 9.72813V4.99699C70.4893 1.81571 73.3399 0.46978 75.6048 0.46978C77.8696 0.46978 80.7592 1.81571 80.7592 4.99699ZM77.7525 5.28249C77.7525 4.01813 76.8543 3.2432 75.6048 3.2432C74.3552 3.2432 73.4571 3.97735 73.4571 5.28249V9.44263C73.4571 10.707 74.3552 11.4819 75.6048 11.4819C76.8543 11.4819 77.7525 10.7478 77.7525 9.44263V5.28249ZM62.4843 14.2553C64.8663 14.2553 67.4825 12.6239 67.4825 10.0544C67.4825 9.56498 67.3263 9.36105 66.8968 9.36105H65.0225C64.5929 9.36105 64.5539 9.68734 64.5148 10.0952C64.3586 11.0741 63.5386 11.4411 62.4843 11.4411C61.2347 11.4411 60.3366 10.707 60.3366 9.44263V5.28249C60.3366 4.01813 61.1956 3.28399 62.4843 3.28399C63.5386 3.28399 64.0462 3.56949 64.4758 4.26285C64.632 4.50756 64.632 4.87463 65.0615 4.87463H66.8968C67.3263 4.87463 67.4825 4.79306 67.4825 4.30363C67.2482 1.73413 64.8663 0.510565 62.4843 0.510565C60.1804 0.510565 57.3298 1.89728 57.3298 5.03777V9.72813C57.3298 12.8686 60.1804 14.2553 62.4843 14.2553ZM12.6576 0.347422C10.3537 0.347422 8.20604 0.999993 6.33169 2.14199C3.24681 4.05892 0.981963 7.32177 0.357178 11.1556H24.9191C23.9038 4.99699 18.8274 0.347422 12.6576 0.347422Z" fill="#ECECEC"/>
<path d="M14.6105 14.9079V26.5318C20.1945 25.6345 24.568 20.8626 25.1147 14.9079H14.6105Z" fill="#ECECEC"/>
<path d="M10.8223 14.9079H0.318115C0.864802 20.8626 5.2383 25.6753 10.8223 26.5318V14.9079Z" fill="#ECECEC"/>
</svg>
