<svg width="22" height="22" viewBox="0 0 22 22" fill="none" xmlns="http://www.w3.org/2000/svg">
<path d="M6.66113 2.04199C7.52397 1.8573 8.38445 2.29548 8.79492 3.01465L8.87012 3.16211L8.87598 3.17383L8.88086 3.18555L10.3477 6.58789L10.3555 6.60547L10.3633 6.625C10.641 7.34776 10.5233 8.30802 9.7793 8.88184L9.78027 8.88281L8.7373 9.73145C9.58121 11.1461 10.7692 12.3296 12.2021 13.1719L13.0547 12.126C13.5588 11.5019 14.4107 11.2699 15.1631 11.4922L15.3125 11.543L15.332 11.5508L15.3496 11.5586L18.752 13.0254L18.792 13.043L18.8301 13.0635C19.5694 13.4616 20.0955 14.3442 19.8955 15.2773L19.8936 15.2881L19.8906 15.2988L19.1416 18.4512L19.1406 18.4502C18.944 19.354 18.179 20 17.2324 20H17.2285C8.81477 19.9666 1.96875 13.1235 1.96875 4.70508C1.96875 3.80761 2.53753 3.00353 3.48633 2.79688V2.7959L6.63867 2.04688L6.64941 2.04395L6.66113 2.04199Z" stroke="#ECECEC" stroke-width="2"/>
</svg>
