<?xml version="1.0" encoding="utf-8"?>
<!-- Generator: Adobe Illustrator 27.1.1, SVG Export Plug-In . SVG Version: 6.00 Build 0)  -->
<svg version="1.1" id="Слой_1" xmlns="http://www.w3.org/2000/svg" xmlns:xlink="http://www.w3.org/1999/xlink" x="0px" y="0px"
	 viewBox="0 0 36 32" style="enable-background:new 0 0 36 32;" xml:space="preserve">
<style type="text/css">
	.st0{fill:#666666;}
</style>
<g>
	<path class="st0" d="M34.9,22.6C34.9,22.6,34.9,22.6,34.9,22.6l-3,3.5c0,0,0,0,0,0l0.1-1.9c0,0,0,0,0,0L30.2,23c0,0,0,0,0,0
		L34.9,22.6z"/>
	<path class="st0" d="M31.8,7.1c0,0.1,0.1,0.3,0.1,0.4v11.9c0,0.4-0.3,0.9-0.8,1.1l-5.9,3V9.9L31.8,7.1z M9,6.3
		c0.1,0,0.2-0.1,0.4-0.1h21.2c0.2,0,0.3,0,0.5,0.1L24.6,9H2.7l6.1-2.7L9,6.3L9,6.3z M2.9,23.8c-0.8,0-1.3-0.6-1.3-1.3V10.4
		c0-0.1,0-0.2,0-0.3h22.5v13.7H2.9z M31.6,21.4c0.8-0.4,1.3-1.2,1.3-2V7.5c0-1.3-1.1-2.3-2.4-2.3H9.4c-0.3,0-0.7,0.1-1,0.3L2,8.2
		l0,0l0,0c-0.9,0.4-1.4,1.2-1.4,2.1v12.1c0,1.3,1.1,2.3,2.4,2.3h21.3c0.3,0,0.7-0.1,1.1-0.3L31.6,21.4L31.6,21.4z"/>
	<path class="st0" d="M35,22.1c0.4,0,0.6,0.5,0.4,0.8L35.3,23l-3,3.5c-0.3,0.4-1,0.1-0.9-0.4l0.1-1.1l-3.7,1.8
		c-0.3,0.1-0.6,0-0.7-0.2c-0.1-0.3,0-0.6,0.2-0.7l3.6-1.8L30,23.5c-0.4-0.3-0.3-0.9,0.2-1L35,22.1L35,22.1z"/>
</g>
</svg>
